<svg id="Capa_1" data-name="Capa 1" xmlns="http://www.w3.org/2000/svg" viewBox="0 0 20 15"><defs><style>.cls-1,.cls-2{fill:#fff;}.cls-1{fill-rule:evenodd;}</style></defs><path class="cls-1" d="M15.5,0a4.92,4.92,0,0,1,3.16,1.1A3.52,3.52,0,0,1,20,3.81a3.52,3.52,0,0,1-1.34,2.71,4.92,4.92,0,0,1-3.16,1.1h-.25L12.29,9l-.1,0A.24.24,0,0,1,12,8.94.24.24,0,0,1,12,8.7l.43-2.14A3.53,3.53,0,0,1,11,3.81,3.52,3.52,0,0,1,12.34,1.1,4.92,4.92,0,0,1,15.5,0Zm0,4.87A.46.46,0,0,0,16,4.43s.15-2.17.14-2.32a.61.61,0,0,0-.59-.59h0a.57.57,0,0,0-.41.21.68.68,0,0,0-.14.46l.14,2.23a.46.46,0,0,0,.42.44Zm-.34,1.21a.51.51,0,1,1,.68,0A.52.52,0,0,1,15.16,6.08Z"/><path class="cls-2" d="M0,15V13.38c0-1.79,2.93-3.26,6.5-3.26S13,11.59,13,13.38V15ZM3.25,5.25A3.26,3.26,0,0,1,3.8,3.44,3.16,3.16,0,0,1,5.26,2.25a3.23,3.23,0,0,1,1.87-.19A3.25,3.25,0,0,1,9.69,4.62,3.23,3.23,0,0,1,9.5,6.49,3.16,3.16,0,0,1,8.31,8a3.25,3.25,0,0,1-5.06-2.7Z"/></svg>