<svg width="24" height="24" viewBox="0 0 24 24" fill="none" xmlns="http://www.w3.org/2000/svg">
<path fill-rule="evenodd" clip-rule="evenodd" d="M17.5 4.5C18.6916 4.5 19.8142 4.88918 20.661 5.59585C21.5245 6.31651 22 7.28015 22 8.30916C22 9.33824 21.5245 10.3019 20.6609 11.0225C19.8141 11.7292 18.6916 12.1184 17.5 12.1184C17.4165 12.1184 17.3318 12.1164 17.2474 12.1125L14.2852 13.4794C14.2552 13.4932 14.2233 13.5 14.1917 13.5C14.1384 13.5 14.0856 13.4807 14.0429 13.4436C13.9748 13.3844 13.9435 13.2897 13.9619 13.1982L14.3898 11.0637C13.5045 10.3473 13 9.35151 13 8.30921C13 7.28015 13.4755 6.31651 14.3391 5.59585C15.1858 4.88918 16.3084 4.5 17.5 4.5ZM17.5006 9.37457C17.7366 9.37457 17.9339 9.17849 17.9497 8.92832C17.9497 8.92832 18.1035 6.75642 18.0923 6.61201C18.0713 6.28239 17.8112 6.0242 17.5005 6.0242C17.4872 6.0242 17.4736 6.02468 17.4602 6.02564C17.3021 6.03707 17.1577 6.11322 17.0535 6.24012C16.9493 6.36707 16.8978 6.5295 16.9086 6.69749L17.0511 8.9281C17.0661 9.16586 17.2462 9.35735 17.4696 9.37346C17.48 9.37422 17.4903 9.37457 17.5006 9.37457ZM17.1615 10.5836C16.9265 10.3785 16.9265 10.0133 17.1615 9.80815C17.3554 9.63882 17.6446 9.63882 17.8385 9.80815C18.0735 10.0133 18.0735 10.3785 17.8385 10.5836C17.6446 10.753 17.3554 10.753 17.1615 10.5836Z" fill-rule="evenodd"/>
<path d="M2 19.5V17.875C2 16.0875 4.925 14.625 8.5 14.625C12.075 14.625 15 16.0875 15 17.875V19.5H2ZM5.25 9.75C5.25 9.10721 5.44061 8.47884 5.79772 7.94438C6.15484 7.40992 6.66242 6.99336 7.25628 6.74738C7.85014 6.50139 8.50361 6.43705 9.13404 6.56245C9.76448 6.68786 10.3436 6.99737 10.7981 7.4519C11.2526 7.90642 11.5622 8.48551 11.6876 9.11595C11.813 9.74639 11.7486 10.3999 11.5026 10.9937C11.2566 11.5876 10.8401 12.0951 10.3056 12.4523C9.77114 12.8094 9.14279 13 8.5 13C7.63805 13 6.8114 12.6576 6.2019 12.0481C5.59241 11.4386 5.25 10.6119 5.25 9.75Z" fill-rule="evenodd"/>
</svg>
