<svg width="18" height="18" viewBox="0 0 18 18" fill="none" xmlns="http://www.w3.org/2000/svg">
<g clip-path="url(#clip0_1334_6680)">
<rect width="18" height="18" fill="white"/>
<path d="M17.5 9.05195C17.5 4.32883 13.6944 0.5 9 0.5C4.30558 0.5 0.5 4.32883 0.5 9.05195C0.5 13.3205 3.60833 16.8584 7.67188 17.5V11.524H5.51367V9.05195H7.67188V7.16784C7.67188 5.02451 8.94086 3.8406 10.8825 3.8406C11.8124 3.8406 12.7852 4.00763 12.7852 4.00763V6.11221H11.7133C10.6574 6.11221 10.3281 6.77143 10.3281 7.44774V9.05195H12.6855L12.3087 11.524H10.3281V17.5C14.3917 16.8584 17.5 13.3205 17.5 9.05195Z" fill="#1877F2"/>
</g>
<defs>
<clipPath id="clip0_1334_6680">
<rect width="18" height="18" fill="white"/>
</clipPath>
</defs>
</svg>
