<svg width="18" height="18" viewBox="0 0 18 18" fill="none" xmlns="http://www.w3.org/2000/svg">
<rect width="18" height="18" fill="white"/>
<path fill-rule="evenodd" clip-rule="evenodd" d="M17.16 9.19323C17.16 8.5905 17.1059 8.01095 17.0055 7.45459H9V10.7425H13.5745C13.3775 11.805 12.7786 12.7053 11.8784 13.308V15.4407H14.6255C16.2327 13.961 17.16 11.7819 17.16 9.19323Z" fill="#4285F4"/>
<path fill-rule="evenodd" clip-rule="evenodd" d="M8.99972 17.5C11.2947 17.5 13.2188 16.7389 14.6252 15.4407L11.8781 13.3079C11.117 13.8179 10.1434 14.1193 8.99972 14.1193C6.78585 14.1193 4.91199 12.6241 4.24358 10.615H1.40381V12.8173C2.80245 15.5952 5.67699 17.5 8.99972 17.5Z" fill="#34A853"/>
<path fill-rule="evenodd" clip-rule="evenodd" d="M4.24386 10.615C4.07386 10.105 3.97727 9.56024 3.97727 9.00001C3.97727 8.43978 4.07386 7.89501 4.24386 7.38501V5.18274H1.40409C0.828409 6.33024 0.5 7.62842 0.5 9.00001C0.5 10.3716 0.828409 11.6698 1.40409 12.8173L4.24386 10.615Z" fill="#FBBC05"/>
<path fill-rule="evenodd" clip-rule="evenodd" d="M8.99972 3.88068C10.2477 3.88068 11.3681 4.30955 12.249 5.15182L14.687 2.71386C13.2149 1.34227 11.2909 0.5 8.99972 0.5C5.67699 0.5 2.80245 2.40477 1.40381 5.18273L4.24358 7.385C4.91199 5.37591 6.78585 3.88068 8.99972 3.88068Z" fill="#EA4335"/>
</svg>
