<svg width="63" height="63" viewBox="0 0 63 63" fill="none" xmlns="http://www.w3.org/2000/svg">
<rect x="3" y="3" width="57" height="57" rx="28.5" fill="white"/>
<path d="M15.8252 47.175V43.2563C15.8252 38.9456 22.8789 35.4188 31.5002 35.4188C40.1214 35.4188 47.1752 38.9456 47.1752 43.2563V47.175H15.8252ZM23.6627 23.6625C23.6627 22.1124 24.1224 20.5971 24.9836 19.3082C25.8447 18.0193 27.0688 17.0148 28.5009 16.4216C29.933 15.8284 31.5089 15.6732 33.0292 15.9756C34.5495 16.278 35.9461 17.0245 37.0421 18.1206C38.1382 19.2167 38.8847 20.6132 39.1871 22.1335C39.4895 23.6538 39.3343 25.2297 38.7411 26.6618C38.1479 28.0939 37.1433 29.3179 35.8545 30.1791C34.5656 31.0403 33.0503 31.5 31.5002 31.5C29.4216 31.5 27.4281 30.6743 25.9582 29.2045C24.4884 27.7347 23.6627 25.7412 23.6627 23.6625Z" fill="#8F0000"/>
<circle cx="31.5" cy="31.5" r="29.925" stroke="white" stroke-width="2.85"/>
</svg>
