<svg width="30" height="30" viewBox="0 0 30 30" fill="none" xmlns="http://www.w3.org/2000/svg">
<path d="M12.9597 13.6573C13.5324 14.1737 14.2125 14.4319 15 14.4319C15.7875 14.4319 16.4497 14.1737 16.9866 13.6573C17.5593 13.1064 17.8456 12.4523 17.8456 11.6948C17.8456 10.9374 17.5593 10.3005 16.9866 9.78404C16.4497 9.23318 15.7875 8.95775 15 8.95775C14.2125 8.95775 13.5324 9.23318 12.9597 9.78404C12.4228 10.3005 12.1544 10.9374 12.1544 11.6948C12.1544 12.4523 12.4228 13.1064 12.9597 13.6573ZM9.30872 6.2723C10.8837 4.75743 12.7808 4 15 4C17.2192 4 19.0984 4.75743 20.6376 6.2723C22.2125 7.75274 23 9.56025 23 11.6948C23 12.7621 22.7136 13.9844 22.1409 15.3615C21.604 16.7387 20.9418 18.0297 20.1544 19.2347C19.3669 20.4397 18.5794 21.5759 17.7919 22.6432C17.0403 23.6761 16.396 24.5023 15.8591 25.1221L15 26C14.7852 25.759 14.4989 25.4491 14.1409 25.0704C13.783 24.6573 13.1387 23.8654 12.2081 22.6948C11.2774 21.4898 10.4541 20.3365 9.73826 19.2347C9.05817 18.0986 8.43177 16.8247 7.85906 15.4131C7.28635 14.0016 7 12.7621 7 11.6948C7 9.56025 7.76957 7.75274 9.30872 6.2723Z" fill="#4E4F4C"/>
</svg>
