<svg width="59" height="257" viewBox="0 0 59 257" fill="none" xmlns="http://www.w3.org/2000/svg">
<path d="M13.9773 251.558C19.4628 257.043 26.4003 256.951 29.1209 256.951C31.8416 256.951 38.7791 257.043 44.2646 251.558C49.75 245.749 52.4928 238.651 52.4928 230.261L55.3272 115.551L58.1925 48.1017L58.1616 36.8424V30.3647C58.1616 21.9752 55.4189 15.0378 49.9334 9.5523C44.448 3.74418 37.5105 0.8401 29.1209 0.8401C20.7314 0.8401 13.794 3.74418 8.3085 9.5523C2.82305 15.0378 0.0803223 21.9752 0.0803223 30.3647L0.0803223 36.8424L0.0803223 48.1017L2.91473 115.551L5.74914 230.261C5.74914 238.651 8.49187 245.749 13.9773 251.558Z" fill="#F0F0F0"/>
<path d="M58.1925 48.1017L55.3272 115.551L58.1616 36.8424L58.1925 48.1017Z" fill="#F0F0F0"/>
</svg>
