<svg width="169" height="261" viewBox="0 0 169 261" fill="none" xmlns="http://www.w3.org/2000/svg">
<path d="M13.9773 255.558C19.4628 261.043 26.4003 260.951 29.1209 260.951C31.8416 260.951 38.7791 261.043 44.2646 255.558C49.75 249.749 52.4928 242.651 52.4928 234.261L55.3272 119.551L58.1925 52.1017L58.1616 40.8424V34.3647C58.1616 25.9752 55.4189 19.0378 49.9334 13.5523C44.448 7.74418 37.5105 4.8401 29.1209 4.8401C20.7314 4.8401 13.794 7.74418 8.3085 13.5523C2.82305 19.0378 0.0803223 25.9752 0.0803223 34.3647L0.0803223 40.8424L0.0803223 52.1017L2.91473 119.551L5.74914 234.261C5.74914 242.651 8.49187 249.749 13.9773 255.558Z" fill="#F0F0F0"/>
<path d="M87.6862 12.1003C80.5874 15.9723 74.1339 20.9738 68.3258 27.1046C64.456 31.2021 61.0679 35.7813 58.1616 40.8424L55.3272 119.551C55.3272 107.934 58.1228 98.7557 61.0269 90.3662C64.2536 81.654 69.7778 73.5696 74.6179 67.7615C79.7807 61.9533 85.2662 57.7586 91.0743 55.1772C97.2051 52.2731 103.175 50.8211 108.983 50.8211C115.436 50.8211 121.083 51.9504 125.923 54.2092C131.086 56.4679 136.733 57.5972 142.863 57.5972C149.317 57.5972 155.286 55.3385 160.772 50.8211C166.257 45.981 169 38.2368 169 27.5886C169 20.1671 165.612 13.7136 158.836 8.22819C152.382 2.74273 144.315 0 134.635 0C126.568 0 118.502 0.968013 110.435 2.90405C102.368 4.84009 94.785 7.90549 87.6862 12.1003Z" fill="url(#paint0_linear_473_15234)"/>
<path d="M58.1925 52.1017L55.3272 119.551L58.1616 40.8424L58.1925 52.1017Z" fill="#F0F0F0"/>
<defs>
<linearGradient id="paint0_linear_473_15234" x1="112.821" y1="56.523" x2="58.1371" y2="56.523" gradientUnits="userSpaceOnUse">
<stop stop-color="#F0F0F0"/>
<stop offset="1" stop-color="#F0F0F0" stop-opacity="0.6"/>
</linearGradient>
</defs>
</svg>
