<svg width="187" height="187" viewBox="0 0 187 187" fill="none" xmlns="http://www.w3.org/2000/svg">
<path d="M77.5135 119.69C79.495 121.671 82.0009 121.638 82.9837 121.638C83.9665 121.638 86.4724 121.671 88.4539 119.69C90.4353 117.592 91.426 115.028 91.426 111.997L92.4499 70.5617L93.4849 46.1978L93.4737 42.1308V39.7909C93.4737 36.7604 92.483 34.2545 90.5016 32.273C88.5201 30.175 86.0141 29.126 82.9837 29.126C79.9532 29.126 77.4473 30.175 75.4658 32.273C73.4844 34.2545 72.4937 36.7604 72.4937 39.7909V42.1308V46.1978L73.5175 70.5617L74.5413 111.997C74.5413 115.028 75.5321 117.592 77.5135 119.69Z" fill="#F0F0F0"/>
<path d="M104.139 31.7485C101.574 33.1472 99.2433 34.9538 97.1452 37.1684C95.7474 38.6485 94.5235 40.3026 93.4737 42.1308L92.4499 70.5617C92.4499 66.3657 93.4597 63.0502 94.5087 60.0197C95.6743 56.8727 97.6697 53.9524 99.4181 51.8544C101.283 49.7564 103.264 48.2412 105.362 47.3088C107.577 46.2597 109.733 45.7352 111.831 45.7352C114.162 45.7352 116.202 46.1432 117.95 46.9591C119.815 47.775 121.855 48.1829 124.07 48.1829C126.401 48.1829 128.557 47.367 130.539 45.7352C132.52 43.9869 133.511 41.1896 133.511 37.3432C133.511 34.6624 132.287 32.3313 129.839 30.3499C127.508 28.3684 124.594 27.3777 121.098 27.3777C118.184 27.3777 115.27 27.7274 112.356 28.4267C109.442 29.126 106.703 30.2333 104.139 31.7485Z" fill="url(#paint0_linear_1206_21226)"/>
<path d="M93.4849 46.1978L92.4499 70.5617L93.4737 42.1308L93.4849 46.1978Z" fill="#F0F0F0"/>
<path d="M96.5563 147.558C96.5563 154.909 90.5973 160.868 83.2464 160.868C75.8955 160.868 69.9364 154.909 69.9364 147.558C69.9364 140.207 75.8955 134.248 83.2464 134.248C90.5973 134.248 96.5563 140.207 96.5563 147.558Z" fill="#F0F0F0"/>
<defs>
<linearGradient id="paint0_linear_1206_21226" x1="113.218" y1="47.7949" x2="93.4649" y2="47.7949" gradientUnits="userSpaceOnUse">
<stop stop-color="#F0F0F0"/>
<stop offset="1" stop-color="#F0F0F0" stop-opacity="0.6"/>
</linearGradient>
</defs>
</svg>
