<svg width="150" height="150" viewBox="0 0 150 150" fill="none" xmlns="http://www.w3.org/2000/svg">
<rect width="150" height="150" rx="75" fill="#8F0000"/>
<path d="M62.045 96.2033C63.6494 97.8076 65.6785 97.7808 66.4742 97.7808C67.27 97.7808 69.299 97.8076 70.9034 96.2033C72.5078 94.5045 73.31 92.4283 73.31 89.9745L74.139 56.4242L74.977 36.6969L74.968 33.4038V31.5092C74.968 29.0554 74.1658 27.0264 72.5614 25.422C70.957 23.7233 68.928 22.8739 66.4742 22.8739C64.0205 22.8739 61.9914 23.7233 60.387 25.422C58.7827 27.0264 57.9805 29.0554 57.9805 31.5092V33.4038V36.6969L58.8095 56.4242L59.6385 89.9745C59.6385 92.4283 60.4407 94.5045 62.045 96.2033Z" fill="#F0F0F0"/>
<path d="M83.6033 24.9973C81.527 26.1298 79.6395 27.5926 77.9408 29.3858C76.8089 30.5842 75.818 31.9235 74.968 33.4038L74.139 56.4242C74.139 53.0267 74.9566 50.3421 75.806 47.8884C76.7498 45.3403 78.3655 42.9758 79.7811 41.277C81.2911 39.5783 82.8955 38.3514 84.5942 37.5964C86.3874 36.747 88.1333 36.3223 89.832 36.3223C91.7195 36.3223 93.3711 36.6526 94.7867 37.3133C96.2967 37.9739 97.9483 38.3042 99.7414 38.3042C101.629 38.3042 103.375 37.6436 104.979 36.3223C106.584 34.9067 107.386 32.6417 107.386 29.5273C107.386 27.3567 106.395 25.4692 104.413 23.8648C102.525 22.2604 100.166 21.4583 97.3349 21.4583C94.9755 21.4583 92.6161 21.7414 90.2567 22.3076C87.8974 22.8739 85.6795 23.7704 83.6033 24.9973Z" fill="url(#paint0_linear_470_15220)"/>
<path d="M74.977 36.6969L74.139 56.4242L74.968 33.4038L74.977 36.6969Z" fill="#F0F0F0"/>
<path d="M77.4637 118.768C77.4637 124.72 72.6387 129.545 66.6867 129.545C60.7347 129.545 55.9097 124.72 55.9097 118.768C55.9097 112.816 60.7347 107.991 66.6867 107.991C72.6387 107.991 77.4637 112.816 77.4637 118.768Z" fill="#F0F0F0"/>
<defs>
<linearGradient id="paint0_linear_470_15220" x1="90.9547" y1="37.99" x2="74.9608" y2="37.99" gradientUnits="userSpaceOnUse">
<stop stop-color="#F0F0F0"/>
<stop offset="1" stop-color="#F0F0F0" stop-opacity="0.6"/>
</linearGradient>
</defs>
</svg>
