<svg width="64" height="64" viewBox="0 0 64 64" fill="none" xmlns="http://www.w3.org/2000/svg">
<path d="M26.4725 41.0468C27.157 41.7313 28.0228 41.7199 28.3623 41.7199C28.7018 41.7199 29.5675 41.7313 30.2521 41.0468C30.9366 40.322 31.2789 39.4361 31.2789 38.3892L31.6326 24.0744L31.9901 15.6574L31.9863 14.2523V13.444C31.9863 12.3971 31.644 11.5313 30.9595 10.8468C30.275 10.122 29.4092 9.75959 28.3623 9.75959C27.3153 9.75959 26.4496 10.122 25.7651 10.8468C25.0805 11.5313 24.7383 12.3971 24.7383 13.444V14.2523V15.6574L25.092 24.0744L25.4457 38.3892C25.4457 39.4361 25.788 40.322 26.4725 41.0468Z" fill="#F0F0F0"/>
<path d="M35.6707 10.6656C34.7848 11.1488 33.9795 11.7729 33.2547 12.538C32.7718 13.0493 32.349 13.6208 31.9863 14.2523L31.6326 24.0744C31.6326 22.6248 31.9814 21.4794 32.3438 20.4325C32.7465 19.3453 33.4359 18.3364 34.0399 17.6116C34.6842 16.8868 35.3687 16.3633 36.0935 16.0412C36.8586 15.6788 37.6035 15.4976 38.3283 15.4976C39.1336 15.4976 39.8383 15.6385 40.4423 15.9204C41.0866 16.2023 41.7912 16.3432 42.5563 16.3432C43.3616 16.3432 44.1066 16.0613 44.7911 15.4976C45.4756 14.8936 45.8179 13.9272 45.8179 12.5984C45.8179 11.6723 45.3951 10.8669 44.5495 10.1824C43.7442 9.49786 42.7375 9.15559 41.5295 9.15559C40.5228 9.15559 39.5162 9.27639 38.5095 9.51799C37.5028 9.75959 36.5566 10.1421 35.6707 10.6656Z" fill="url(#paint0_linear_1294_21735)"/>
<path d="M31.9901 15.6574L31.6326 24.0744L31.9863 14.2523L31.9901 15.6574Z" fill="#F0F0F0"/>
<path d="M33.0509 50.6745C33.0509 53.214 30.9922 55.2727 28.4527 55.2727C25.9132 55.2727 23.8545 53.214 23.8545 50.6745C23.8545 48.135 25.9132 46.0763 28.4527 46.0763C30.9922 46.0763 33.0509 48.135 33.0509 50.6745Z" fill="#F0F0F0"/>
<defs>
<linearGradient id="paint0_linear_1294_21735" x1="38.8073" y1="16.2091" x2="31.9832" y2="16.2091" gradientUnits="userSpaceOnUse">
<stop stop-color="#F0F0F0"/>
<stop offset="1" stop-color="#F0F0F0" stop-opacity="0.6"/>
</linearGradient>
</defs>
</svg>
