<svg width="30" height="30" viewBox="0 0 30 30" fill="none" xmlns="http://www.w3.org/2000/svg">
<path d="M6.26953 21.2695H23.7305L18.1055 13.7695L13.7695 19.3945L10.6055 15.6445L6.26953 21.2695ZM26.25 3.75C26.875 3.75 27.4414 4.02344 27.9492 4.57031C28.4961 5.07812 28.7695 5.64453 28.7695 6.26953V23.7305C28.7695 24.3555 28.4961 24.9414 27.9492 25.4883C27.4414 25.9961 26.875 26.25 26.25 26.25H3.75C3.08594 26.25 2.5 25.9961 1.99219 25.4883C1.48438 24.9805 1.23047 24.3945 1.23047 23.7305V6.26953C1.23047 5.64453 1.48438 5.07812 1.99219 4.57031C2.53906 4.02344 3.125 3.75 3.75 3.75H26.25Z" fill="#4E4F4C"/>
</svg>
