<svg
      width="290"
      height="85"
      viewBox="0 0 290 85"
      fill="none"
      xmlns="http://www.w3.org/2000/svg"
     
    >
      <path
        d="M289.9 6.7C289.9 10.4003 286.9 13.4 283.2 13.4C279.5 13.4 276.5 10.4003 276.5 6.7C276.5 2.99969 279.5 0 283.2 0C286.9 0 289.9 2.99969 289.9 6.7Z"
        fill="#262724"
      />
      <path
        d="M58.4988 64.4176C53.9307 64.4176 49.9337 63.4468 46.5076 61.5054C43.0816 59.564 40.3978 56.9088 38.4564 53.5398C36.572 50.1138 35.6299 46.1738 35.6299 41.7199C35.6299 36.7521 36.6006 32.5267 38.542 29.0435C40.5406 25.5032 43.1101 22.8195 46.2507 20.9923C49.4483 19.1079 52.8173 18.1658 56.3575 18.1658C58.9842 18.1658 61.5252 18.6511 63.9805 19.6218C66.4359 20.5926 68.6057 22.0201 70.49 23.9044C72.3744 25.7316 73.8875 27.9586 75.0296 30.5852C76.1716 33.1548 76.7711 36.0384 76.8282 39.236C76.8282 40.1496 76.4856 40.9205 75.8004 41.5486C75.1152 42.1767 74.3158 42.4908 73.4022 42.4908H41.8529C40.5081 42.4908 39.333 41.5829 38.9936 40.2817C38.5052 38.4095 39.918 36.5808 41.8529 36.5808H70.0078C70.3534 36.5808 70.5144 37.0092 70.2543 37.2368C70.0123 37.4485 69.6335 37.2767 69.6335 36.9551V35.8956C69.4051 33.5545 68.6057 31.5559 67.2353 29.9C65.922 28.187 64.2946 26.8737 62.3531 25.96C60.4688 25.0464 58.4703 24.5896 56.3575 24.5896C54.6445 24.5896 52.9315 24.9037 51.2185 25.5318C49.5625 26.1028 48.0493 27.0735 46.6789 28.4439C45.3656 29.7573 44.2807 31.4703 43.4242 33.583C42.6248 35.6958 42.225 38.2368 42.225 41.206C42.225 44.5179 42.8817 47.43 44.195 49.9425C45.5655 52.4549 47.4498 54.4534 49.848 55.9381C52.2463 57.3656 55.0442 58.0793 58.2419 58.0793C60.2404 58.0793 61.982 57.8224 63.4666 57.3085C64.9512 56.7946 66.236 56.1665 67.3209 55.4242C68.2635 54.7296 69.0768 54.0351 69.7608 53.3405C69.9639 53.1343 70.1789 52.9376 70.4287 52.7914C71.04 52.4338 71.6315 52.2551 72.2031 52.2551C73.0596 52.2551 73.7448 52.5406 74.2587 53.1116C74.8297 53.6826 75.1152 54.3678 75.1152 55.1672C75.1152 56.0513 74.7363 56.8407 73.9784 57.5354C73.8271 57.6741 73.6765 57.8138 73.5359 57.9634C71.9588 59.6412 69.8586 61.1359 67.2353 62.4476C64.4944 63.7609 61.5823 64.4176 58.4988 64.4176Z"
        fill="#262724"
      />
      <path
        d="M106.827 18.7653C109.568 18.7653 112.08 19.0794 114.364 19.7075C116.705 20.2785 118.561 21.0779 119.932 22.1057C121.302 23.1335 121.987 24.247 121.987 25.4461C121.987 26.0171 121.787 26.5882 121.388 27.1592C120.988 27.7302 120.417 28.0157 119.675 28.0157C118.99 28.0157 118.418 27.8444 117.962 27.5018C117.562 27.1592 117.134 26.7595 116.677 26.3026C116.277 25.8458 115.678 25.4176 114.878 25.0179C114.193 24.6753 113.137 24.3898 111.709 24.1614C110.339 23.8759 108.826 23.7331 107.17 23.7331C103.972 23.7331 101.088 24.5325 98.5188 26.1313C95.9493 27.6731 93.9222 29.7858 92.4376 32.4696C91.01 35.1533 90.2963 38.1797 90.2963 41.5486C90.2963 44.9747 90.9815 48.0296 92.3519 50.7133C93.7794 53.3971 95.7494 55.5384 98.2619 57.1372C100.774 58.6789 103.686 59.4498 106.998 59.4498C109.225 59.4498 110.967 59.2499 112.223 58.8502C113.479 58.4505 114.564 57.9937 115.478 57.4798C116.563 56.8517 117.362 56.2521 117.876 55.6811C118.39 55.1101 119.047 54.8246 119.846 54.8246C120.588 54.8246 121.159 55.053 121.559 55.5098C121.959 55.9666 122.159 56.5376 122.159 57.2228C122.159 58.1364 121.473 59.1643 120.103 60.3063C118.733 61.3912 116.877 62.3619 114.536 63.2184C112.194 64.0179 109.482 64.4176 106.399 64.4176C102.173 64.4176 98.4332 63.4183 95.1784 61.4198C91.9807 59.4212 89.4683 56.7089 87.6411 53.2829C85.8709 49.7997 84.9859 45.8883 84.9859 41.5486C84.9859 37.3802 85.8995 33.583 87.7267 30.157C89.554 26.6738 92.0949 23.9044 95.3497 21.8488C98.6045 19.7931 102.43 18.7653 106.827 18.7653Z"
        fill="#262724"
      />
      <path
        d="M137.54 60.9915C137.54 61.6767 137.283 62.2763 136.769 62.7902C136.255 63.3041 135.655 63.561 134.97 63.561C134.228 63.561 133.6 63.3041 133.086 62.7902C132.629 62.2763 132.401 61.6767 132.401 60.9915V2.7485C132.401 2.06328 132.658 1.46373 133.172 0.94982C133.685 0.435911 134.285 0.178955 134.97 0.178955C135.713 0.178955 136.312 0.435911 136.769 0.94982C137.283 1.46373 137.54 2.06328 137.54 2.7485V60.9915Z"
        fill="#262724"
      />
      <path
        d="M187.429 20.2214C188.114 20.2214 188.657 20.4498 189.056 20.9066C189.456 21.3063 189.656 21.8202 189.656 22.4483V61.3341C189.656 61.9051 189.428 62.419 188.971 62.8758C188.571 63.3326 188.057 63.561 187.429 63.561C186.744 63.561 186.201 63.3326 185.802 62.8758C185.402 62.419 185.202 61.9051 185.202 61.3341V50.7871C185.202 50.5291 185.339 50.2904 185.561 50.1596C186.046 49.8741 186.647 50.2252 186.57 50.7831C186.398 52.0413 185.97 53.3314 185.288 54.6533C184.374 56.4234 183.146 58.0508 181.605 59.5354C180.063 60.9629 178.207 62.1335 176.037 63.0471C173.925 63.9608 171.641 64.4176 169.185 64.4176C165.36 64.4176 161.933 63.4183 158.907 61.4198C155.881 59.4212 153.483 56.7089 151.712 53.2829C149.999 49.7997 149.143 45.8883 149.143 41.5486C149.143 37.1518 150.028 33.269 151.798 29.9C153.568 26.5311 155.966 23.8759 158.993 21.9344C162.019 19.993 165.417 19.0223 169.185 19.0223C171.641 19.0223 173.925 19.4791 176.037 20.3927C178.207 21.2492 180.092 22.4483 181.69 23.9901C183.289 25.4747 184.545 27.2163 185.459 29.2148C186.101 30.6181 186.517 32.0777 186.708 33.5936C186.799 34.3128 185.953 34.6766 185.44 34.164C185.288 34.0114 185.202 33.8044 185.202 33.5886V22.4483C185.202 21.8202 185.402 21.3063 185.802 20.9066C186.201 20.4498 186.744 20.2214 187.429 20.2214ZM169.528 60.2206C172.611 60.2206 175.352 59.4212 177.75 57.8224C180.206 56.1665 182.119 53.9395 183.489 51.1416C184.859 48.2865 185.545 45.0889 185.545 41.5486C185.545 38.1226 184.859 35.0391 183.489 32.2983C182.119 29.5003 180.206 27.3019 177.75 25.7031C175.352 24.0472 172.611 23.2192 169.528 23.2192C166.502 23.2192 163.761 24.0186 161.305 25.6174C158.907 27.1592 157.023 29.329 155.652 32.127C154.282 34.8678 153.597 38.0084 153.597 41.5486C153.597 45.0889 154.282 48.2865 155.652 51.1416C157.023 53.9395 158.907 56.1665 161.305 57.8224C163.704 59.4212 166.444 60.2206 169.528 60.2206Z"
        fill="#262724"
      />
      <path
        d="M221.821 20.3071C225.019 20.3071 227.931 21.1921 230.558 22.9622C233.176 24.6336 234.979 27.2562 235.967 30.8301C236.012 30.9911 235.948 31.1624 235.811 31.2575C235.507 31.4677 235.106 31.1865 235.2 30.8294L235.354 30.2426C236.097 28.3583 237.381 26.6738 239.209 25.1892C241.093 23.7046 243.177 22.534 245.461 21.6775C247.802 20.7639 250.058 20.3071 252.228 20.3071C255.654 20.3071 258.48 21.0494 260.707 22.534C262.934 24.0186 264.562 26.0171 265.589 28.5296C266.674 30.9849 267.217 33.7829 267.217 36.9234V61.848C267.217 62.3048 267.045 62.7045 266.703 63.0471C266.417 63.3897 266.018 63.561 265.504 63.561C264.99 63.561 264.562 63.3897 264.219 63.0471C263.933 62.7045 263.791 62.3048 263.791 61.848V37.266C263.791 34.7536 263.362 32.4696 262.506 30.4139C261.706 28.3012 260.422 26.6453 258.652 25.4461C256.939 24.1899 254.683 23.5618 251.885 23.5618C249.43 23.5618 247.032 24.1899 244.69 25.4461C242.349 26.6453 240.408 28.3012 238.866 30.4139C237.381 32.4696 236.639 34.7536 236.639 37.266V61.848C236.639 62.3048 236.468 62.7045 236.125 63.0471C235.84 63.3897 235.44 63.561 234.926 63.561C234.412 63.561 233.984 63.3897 233.641 63.0471C233.356 62.7045 233.213 62.3048 233.213 61.848V36.8378C233.213 34.3824 232.813 32.1555 232.014 30.157C231.272 28.1584 230.073 26.5596 228.417 25.3605C226.761 24.1614 224.562 23.5618 221.821 23.5618C219.423 23.5618 217.082 24.1614 214.798 25.3605C212.571 26.5596 210.715 28.1584 209.231 30.157C207.746 32.1555 207.004 34.3824 207.004 36.8378V61.848C207.004 62.3048 206.832 62.7045 206.49 63.0471C206.147 63.3897 205.748 63.561 205.291 63.561C204.777 63.561 204.349 63.3897 204.006 63.0471C203.72 62.7045 203.578 62.3048 203.578 61.848V22.534C203.578 22.0772 203.749 21.6775 204.092 21.3349C204.434 20.9923 204.834 20.821 205.291 20.821C205.805 20.821 206.204 20.9923 206.49 21.3349C206.832 21.6775 207.004 22.0772 207.004 22.534V31.5201C207.004 31.7492 206.943 31.9741 206.826 32.1716C206.163 33.2998 204.847 32.8512 205.332 31.6356C205.496 31.2258 205.682 30.8185 205.89 30.4139C206.861 28.5296 208.146 26.8451 209.745 25.3605C211.401 23.8188 213.256 22.5911 215.312 21.6775C217.425 20.7639 219.595 20.3071 221.821 20.3071Z"
        fill="#262724"
      />
      <path
        fill-rule="evenodd"
        clip-rule="evenodd"
        d="M284.362 63.0471C284.705 62.7045 284.876 62.3048 284.876 61.848V21.1636C284.876 20.7068 284.705 20.307 284.362 19.9644C284.077 19.6218 283.677 19.4505 283.163 19.4505C282.706 19.4505 282.307 19.6218 281.964 19.9644C281.622 20.307 281.45 20.7068 281.45 21.1636V61.848C281.45 62.3048 281.593 62.7045 281.879 63.0471C282.221 63.3897 282.649 63.561 283.163 63.561C283.62 63.561 284.02 63.3897 284.362 63.0471Z"
        fill="#262724"
      />
      <path
        d="M3.81409 63.4652C4.81145 64.4625 6.07281 64.4459 6.56749 64.4459C7.06216 64.4459 8.32353 64.4625 9.32089 63.4652C10.3182 62.4091 10.8169 61.1185 10.8169 59.5931L11.3323 38.7365L11.8532 26.4731L11.8476 24.4259V23.2482C11.8476 21.7228 11.3489 20.4614 10.3516 19.4641C9.35423 18.408 8.09286 17.88 6.56749 17.88C5.04211 17.88 3.78075 18.408 2.78339 19.4641C1.78603 20.4614 1.28735 21.7228 1.28735 23.2482V24.4259V26.4731L1.8027 38.7365L2.31805 59.5931C2.31805 61.1185 2.81673 62.4091 3.81409 63.4652Z"
        fill="#8F0000"
      />
      <path
        d="M17.2158 19.2001C15.9251 19.9041 14.7517 20.8134 13.6957 21.9281C12.9921 22.6731 12.376 23.5057 11.8476 24.4259L11.3323 38.7365C11.3323 36.6245 11.8406 34.9556 12.3686 33.4303C12.9553 31.8462 13.9597 30.3763 14.8397 29.3203C15.7784 28.2643 16.7757 27.5016 17.8318 27.0323C18.9465 26.5042 20.0318 26.2402 21.0879 26.2402C22.2612 26.2402 23.2879 26.4456 24.1679 26.8562C25.1066 27.2669 26.1333 27.4723 27.248 27.4723C28.4214 27.4723 29.5067 27.0616 30.5041 26.2402C31.5015 25.3602 32.0001 23.9522 32.0001 22.0161C32.0001 20.6668 31.3841 19.4934 30.1521 18.496C28.9787 17.4987 27.512 17 25.752 17C24.2853 17 22.8186 17.176 21.3519 17.528C19.8852 17.88 18.5065 18.4374 17.2158 19.2001Z"
        fill="url(#paint0_linear_470_15323)"
      />
      <path
        d="M11.8532 26.4731L11.3323 38.7365L11.8476 24.4259L11.8532 26.4731Z"
        fill="#8F0000"
      />
      <path
        d="M13.3991 77.4925C13.3991 81.1926 10.3996 84.192 6.69954 84.192C2.99948 84.192 0 81.1926 0 77.4925C0 73.7925 2.99948 70.793 6.69954 70.793C10.3996 70.793 13.3991 73.7925 13.3991 77.4925Z"
        fill="#8F0000"
      />
      <defs>
        <linearGradient
          id="paint0_linear_470_15323"
          x1="21.7858"
          y1="27.2769"
          x2="11.8432"
          y2="27.2769"
          gradientUnits="userSpaceOnUse"
        >
          <stop stop-color="#8F0000" />
          <stop offset="1" stop-color="#8F0000" stop-opacity="0.6" />
        </linearGradient>
      </defs>
    </svg>