<svg width="227" height="182" viewBox="0 0 227 182" fill="none" xmlns="http://www.w3.org/2000/svg">
<g clip-path="url(#clip0_1630_14998)">
<path d="M226.999 181.672H0V-0.000183105H226.999V181.672Z" fill="#F0F0F0"/>
<path d="M217.936 136.398C217.936 138.053 212.476 139.394 205.741 139.394C199.006 139.394 193.546 138.053 193.546 136.398C193.546 134.743 199.006 133.401 205.741 133.401C212.476 133.401 217.936 134.743 217.936 136.398Z" fill="#8F0000"/>
<path d="M202.655 116.983C204.341 118.142 204.13 122.49 204.13 122.49C204.13 122.49 198.918 116.786 192.329 118.458C192.329 118.458 199.508 114.819 202.655 116.983Z" fill="#8F0000"/>
<path d="M205.479 124.84C203.29 119.102 195.629 116.387 195.552 116.361L195.597 116.228C195.675 116.254 203.399 118.99 205.61 124.79L205.479 124.84Z" fill="#262724"/>
<path d="M202.655 116.983C201.279 115.409 196.164 113.541 193.017 116.983C189.87 120.425 186.723 117.573 186.723 117.573C186.723 117.573 188.69 121.408 192.329 121.015C195.967 120.622 197.344 115.901 202.655 116.983Z" fill="#FDE5E5"/>
<path d="M213.491 107.173L206.491 122.096L206.982 115.606L213.491 107.173Z" fill="#8F0000"/>
<path d="M205.581 125.855L205.445 125.816L209.571 111.456L209.706 111.495L205.581 125.855Z" fill="#262724"/>
<path d="M222.029 105.87C222.029 105.87 221.833 109.902 215.44 111.475C209.048 113.049 206.982 115.606 206.982 115.606C206.982 115.606 209.442 103.509 222.029 105.87Z" fill="#FDE5E5"/>
<path d="M203.54 109.705C203.54 109.705 200.196 106.558 196.853 107.738C193.509 108.918 191.247 112.458 186.723 110.59C186.723 110.59 192.624 114.524 196.066 113.737C199.508 112.95 201.18 108.722 203.54 109.705Z" fill="#FDE5E5"/>
<path d="M202.655 104.886C201.573 102.428 203.245 96.1334 206.981 94.1666C210.719 92.1998 215.145 93.9698 216.718 91.0196C216.718 91.0196 215.178 98.7888 210.03 98.7888C203.539 98.7888 202.655 104.886 202.655 104.886Z" fill="#FDE5E5"/>
<path d="M199.803 99.3787C199.803 99.3787 198.427 94.4616 193.509 96.4285C193.509 96.4285 196.657 99.1821 199.803 99.3787Z" fill="#FDE5E5"/>
<path d="M199.803 96.6254C199.803 96.6254 197.541 92.003 200.491 90.0363C200.491 90.0363 202.261 92.9864 199.803 96.6254Z" fill="#FDE5E5"/>
<path d="M202.649 104.637L202.508 104.63C202.653 101.812 203.633 99.6299 205.419 98.1449C206.84 96.9653 208.731 96.2199 211.201 95.8669C215.241 95.29 216.638 91.0412 216.651 90.9984L216.785 91.0408C216.772 91.0846 215.348 95.4174 211.221 96.0069C205.712 96.7936 202.908 99.6169 202.649 104.637Z" fill="#262724"/>
<path d="M205.38 129.185L205.24 129.17C205.245 129.113 205.823 123.374 205.239 115.021C204.784 108.49 202.688 105.026 201.3 102.733C200.899 102.069 200.552 101.496 200.327 100.981C199.516 99.1116 199.536 95.302 200.384 90.2532C200.406 90.1311 200.418 90.0536 200.421 90.0286L200.561 90.044C200.559 90.07 200.545 90.1499 200.523 90.2767C199.679 95.2986 199.655 99.0804 200.458 100.925C200.677 101.431 201.022 102.001 201.422 102.66C202.815 104.965 204.922 108.446 205.38 115.011C205.964 123.378 205.385 129.128 205.38 129.185Z" fill="#262724"/>
<path d="M190.653 111.733C189.582 111.733 188.521 111.385 186.697 110.656L186.75 110.525C190.548 112.044 190.995 111.885 195.27 110.364C195.949 110.122 196.72 109.848 197.616 109.54C200.167 108.665 202.136 108.63 203.47 109.436C204.725 110.194 204.926 111.413 204.933 111.465L204.794 111.486C204.793 111.474 204.593 110.278 203.395 109.555C202.098 108.773 200.17 108.813 197.661 109.673C196.766 109.981 195.996 110.255 195.317 110.497C193.045 111.305 191.843 111.733 190.653 111.733Z" fill="#262724"/>
<path d="M199.758 99.4331C196.571 96.8252 193.537 96.6968 193.507 96.6958L193.512 96.5544C193.542 96.5554 196.621 96.6843 199.848 99.3239L199.758 99.4331Z" fill="#262724"/>
<path d="M209.29 110.634L209.188 110.536C212.21 107.404 218.597 107.373 218.685 107.373V107.514C218.601 107.514 212.271 107.545 209.29 110.634Z" fill="#262724"/>
<path d="M207.829 136.771H202.918C202.1 136.771 201.396 136.191 201.24 135.388L200.197 130.02C199.992 128.965 200.8 127.985 201.875 127.985H208.872C209.947 127.985 210.755 128.965 210.551 130.02L209.507 135.388C209.351 136.191 208.647 136.771 207.829 136.771Z" fill="#5C0000"/>
<path d="M181.327 139.247C181.327 146.486 152.654 152.354 117.283 152.354C81.9128 152.354 53.24 146.486 53.24 139.247C53.24 132.009 81.9128 126.14 117.283 126.14C152.654 126.14 181.327 132.009 181.327 139.247Z" fill="#8F0000"/>
<path d="M34.2506 63.4626L18.7317 61.4816V48.8469L34.2506 51.5996V63.4626Z" fill="#FFDEDE"/>
<path d="M18.8023 61.4196L34.1802 63.383V51.6593L18.8023 48.931V61.4196ZM34.3211 63.5428L18.6612 61.5435V48.763L18.744 48.7777L34.3211 51.5403V63.5428Z" fill="white"/>
<path d="M51.4936 65.664L38.1988 63.9663V52.2998L51.4936 54.6579V65.664Z" fill="#FFDEDE"/>
<path d="M38.2692 63.9051L51.4228 65.584V54.7177L38.2692 52.3843V63.9051ZM51.5641 65.7445L38.1281 64.0298V52.2159L51.5641 54.5993V65.7445Z" fill="white"/>
<path d="M34.2504 78.6962L18.7315 77.7062V65.0711L34.2504 66.8337V78.6962Z" fill="#FFDEDE"/>
<path d="M18.8022 77.6391L34.1802 78.6213V66.896L18.8022 65.1501V77.6391ZM34.3212 78.7709L34.2462 78.7666L18.6612 77.7716V64.9919L18.7397 65.0012L34.3212 66.77V78.7709Z" fill="white"/>
<path d="M51.4935 79.797L38.1988 78.9486V67.2814L51.4935 68.791V79.797Z" fill="#FFDEDE"/>
<path d="M38.2694 78.8817L51.4229 79.7209V68.8533L38.2694 67.3603V78.8817ZM51.5643 79.8719L38.1283 79.0145V67.2023L51.5643 68.7276V79.8719Z" fill="white"/>
<path d="M34.2504 93.9296H18.7315V81.295L34.2504 82.0666V93.9296Z" fill="#FFDEDE"/>
<path d="M18.8022 93.8589H34.1801V82.1332L18.8022 81.3684V93.8589ZM34.3212 93.9995H18.6612V81.2205L34.3212 81.9989V93.9995Z" fill="white"/>
<path d="M51.4935 93.9293H38.1988V82.2624L51.4935 82.9235V93.9293Z" fill="#FFDEDE"/>
<path d="M38.269 93.8593H51.4225V82.9906L38.269 82.337V93.8593ZM51.5639 94.0003H38.1279V82.1886L51.5639 82.8563V94.0003Z" fill="white"/>
<path d="M39.6983 7.10482L38.1431 6.43621L38.2545 6.17674L39.8098 6.84534L39.6983 7.10482ZM53.1763 12.8972L41.2534 7.77235L41.3649 7.51395L53.2878 12.6378L53.1763 12.8972ZM56.2866 14.2334L54.7314 13.5658L54.843 13.3064L56.3982 13.975L56.2866 14.2334ZM69.7644 20.0269L68.2092 19.3583L68.3209 19.0988L69.876 19.7674L69.7644 20.0269ZM72.051 33.1912H71.7687V20.8882L71.3197 20.6955L71.4312 20.436L72.051 20.7019V33.1912ZM72.051 36.5762H71.7687V34.8837H72.051V36.5762ZM72.051 51.2467H71.7687V49.5532H72.051V51.2467ZM72.051 65.9162H71.7687V52.9393H72.051V65.9162ZM72.051 69.3023H71.7687V67.6098H72.051V69.3023ZM72.051 83.9721H71.7687V82.2794H72.051V83.9721ZM72.051 98.6421H71.7687V85.6648H72.051V98.6421ZM72.051 102.028H71.7687V100.335H72.051V102.028ZM72.051 116.698H71.7687V115.005H72.051V116.698ZM58.9709 121.089L58.9099 120.814L71.5817 118.014L71.6423 118.289L58.9709 121.089ZM55.6653 121.82L55.6042 121.544L57.257 121.179L57.3182 121.454L55.6653 121.82ZM41.3407 124.986L41.2797 124.71L42.9326 124.345L42.9935 124.621L41.3407 124.986ZM27.0161 128.151L26.9553 127.876L39.6269 125.075L39.6879 125.351L27.0161 128.151ZM23.7106 128.882L23.6496 128.606L25.3024 128.241L25.3634 128.517L23.7106 128.882ZM9.38606 132.047L9.32512 131.772L10.978 131.406L11.0388 131.682L9.38606 132.047ZM0.966136 133.908L0.905273 133.633L7.67232 132.137L7.73319 132.413L0.966136 133.908Z" fill="white"/>
<path d="M73.5925 118.314L71.9022 118.226L71.9172 117.945L73.6074 118.033L73.5925 118.314ZM88.2428 119.077L75.2829 118.402L75.2978 118.121L88.2576 118.795L88.2428 119.077ZM91.6239 119.253L89.9335 119.165L89.948 118.883L91.6382 118.971L91.6239 119.253ZM106.274 120.016L104.584 119.928L104.598 119.646L106.288 119.734L106.274 120.016ZM120.924 120.779L107.964 120.104L107.979 119.822L120.939 120.497L120.924 120.779ZM124.305 120.955L122.615 120.867L122.629 120.585L124.32 120.673L124.305 120.955ZM138.956 121.717L137.265 121.629L137.279 121.347L138.971 121.435L138.956 121.717ZM153.606 122.48L140.646 121.806L140.661 121.523L153.621 122.198L153.606 122.48ZM156.986 122.656L155.296 122.568L155.311 122.286L157.001 122.374L156.986 122.656ZM171.636 123.418L169.946 123.331L169.961 123.049L171.651 123.137L171.636 123.418ZM186.288 124.182L173.328 123.506L173.342 123.225L186.301 123.899L186.288 124.182ZM189.668 124.358L187.978 124.27L187.992 123.987L189.682 124.076L189.668 124.358ZM204.318 125.12L202.628 125.032L202.642 124.75L204.332 124.838L204.318 125.12ZM218.968 125.883L206.009 125.208L206.024 124.926L218.983 125.601L218.968 125.883ZM222.349 126.059L220.659 125.971L220.674 125.689L222.364 125.777L222.349 126.059Z" fill="white"/>
<path d="M154.562 67.087L171.006 64.9491C173.744 64.5935 176.172 66.726 176.172 69.4874V79.344C176.172 80.8016 174.991 81.9836 173.533 81.9836C172.159 81.9836 171.015 80.9295 170.902 79.5605L170.217 72.0046L156.835 74.124C155.438 74.6376 153.892 73.8941 153.421 72.4813L152.751 70.4688C152.271 69.0303 153.1 67.4847 154.562 67.087Z" fill="#CED0C8"/>
<path d="M170.279 71.9229L170.287 71.9975L170.972 79.5543C171.08 80.8772 172.206 81.913 173.533 81.913C174.949 81.913 176.101 80.7607 176.101 79.3441V69.4879C176.101 68.1915 175.543 66.9578 174.569 66.1026C173.595 65.2473 172.3 64.8526 171.014 65.0192L154.576 67.1568C153.89 67.3449 153.326 67.7936 152.99 68.4207C152.653 69.05 152.591 69.769 152.817 70.447L153.489 72.4592C153.709 73.1241 154.18 73.6576 154.811 73.9616C155.442 74.2654 156.153 74.2996 156.81 74.0582L170.279 71.9229ZM173.533 82.0539C172.132 82.0539 170.946 80.9613 170.832 79.5667L170.153 72.0851L156.846 74.1938C156.165 74.4453 155.416 74.4092 154.749 74.0885C154.083 73.7682 153.588 73.2052 153.353 72.5035L152.683 70.4913C152.445 69.7766 152.51 69.0176 152.866 68.3548C153.222 67.6909 153.817 67.2162 154.544 67.0195L154.554 67.0173L170.996 64.8797C172.322 64.7078 173.657 65.1143 174.663 65.9966C175.666 66.8789 176.242 68.1504 176.242 69.4879V79.3441C176.242 80.8381 175.027 82.0539 173.533 82.0539Z" fill="#6C2626"/>
<path d="M168.286 85.8464L159.065 106.381C158.145 108.431 157.766 110.682 157.966 112.92L159.915 134.778L155.731 141.216L163.422 139.264C165.268 138.796 166.605 137.197 166.741 135.298L168.286 113.531L179.713 89.0655L168.286 85.8464Z" fill="#CED0C8"/>
<path d="M168.324 85.9309L159.128 106.41C158.215 108.445 157.838 110.693 158.035 112.914L159.987 134.796L159.973 134.816L155.887 141.103L163.404 139.196C165.224 138.734 166.536 137.166 166.669 135.293L168.215 113.514L168.22 113.502L179.614 89.111L168.324 85.9309ZM155.573 141.329L159.842 134.76L157.895 112.926C157.695 110.682 158.077 108.408 159 106.353L168.245 85.7621L179.811 89.0201L168.354 113.55L166.809 135.303C166.673 137.237 165.318 138.856 163.439 139.332L155.573 141.329Z" fill="#6C2626"/>
<path d="M152.285 62.2C151.328 55.7403 144.928 56.9084 142.735 60.651C140.54 64.3945 148.025 72.6546 150.479 70.4601C152.93 68.2665 152.801 65.6846 152.285 62.2Z" fill="white"/>
<path d="M147.861 57.6696C145.931 57.6696 143.864 58.8629 142.795 60.6871C141.364 63.1272 144.126 67.3831 146.583 69.3922C148.213 70.7254 149.651 71.1047 150.431 70.4072C152.889 68.2083 152.72 65.6227 152.215 62.2099C151.844 59.7003 150.594 58.1155 148.696 57.7475C148.423 57.6949 148.144 57.6696 147.861 57.6696ZM149.465 70.8897C148.649 70.8897 147.611 70.4147 146.494 69.5012C143.999 67.461 141.203 63.1225 142.674 60.6157C143.927 58.4751 146.529 57.1832 148.724 57.6095C150.684 57.9897 151.973 59.6158 152.354 62.1893C152.867 65.6462 153.035 68.2665 150.524 70.5123C150.242 70.7658 149.883 70.8897 149.465 70.8897Z" fill="#262724"/>
<path d="M143.252 86.1857H136.338C136.203 86.1857 136.093 86.0757 136.093 85.9401V84.7877C136.093 84.6513 136.203 84.5412 136.338 84.5412H143.252C143.387 84.5412 143.497 84.6513 143.497 84.7877V85.9401C143.497 86.0757 143.387 86.1857 143.252 86.1857Z" fill="white"/>
<path d="M136.814 84.6123C136.455 84.6123 136.164 84.903 136.164 85.2615V85.4649C136.164 85.8234 136.455 86.115 136.814 86.115H142.777C143.135 86.115 143.427 85.8234 143.427 85.4649V85.2615C143.427 84.903 143.135 84.6123 142.777 84.6123H136.814ZM142.777 86.2559H136.814C136.378 86.2559 136.023 85.9009 136.023 85.4649V85.2615C136.023 84.8255 136.378 84.4705 136.814 84.4705H142.777C143.213 84.4705 143.568 84.8255 143.568 85.2615V85.4649C143.568 85.9009 143.213 86.2559 142.777 86.2559Z" fill="#262724"/>
<path d="M138.347 85.7852C138.347 88.2197 133.843 90.1928 128.287 90.1928C122.731 90.1928 118.226 88.2197 118.226 85.7852C118.226 80.6961 120.48 80.052 128.367 80.052C138.507 80.052 138.347 83.3515 138.347 85.7852Z" fill="#FFDEDE"/>
<path d="M128.367 80.1223C124.473 80.1223 121.916 80.2777 120.372 81.0726C118.898 81.8309 118.297 83.1964 118.297 85.7848C118.297 88.177 122.778 90.1217 128.286 90.1217C133.795 90.1217 138.276 88.177 138.276 85.7848V85.6727C138.277 84.5237 138.279 83.2211 137.224 82.1664C135.851 80.7915 132.953 80.1223 128.367 80.1223ZM128.286 90.2626C122.7 90.2626 118.156 88.2543 118.156 85.7848C118.156 80.704 120.332 79.9814 128.367 79.9814C132.993 79.9814 135.923 80.6633 137.324 82.0661C138.42 83.1633 138.418 84.4966 138.417 85.6736V85.7848C138.417 88.2543 133.872 90.2626 128.286 90.2626Z" fill="#262724"/>
<path d="M138.347 83.8535C138.347 86.2877 133.842 88.261 128.286 88.261C122.73 88.261 118.227 86.2877 118.227 83.8535C118.227 81.4193 122.73 79.4468 128.286 79.4468C133.842 79.4468 138.347 81.4193 138.347 83.8535Z" fill="white"/>
<path d="M128.286 79.5168C122.778 79.5168 118.297 81.4623 118.297 83.8536C118.297 86.2441 122.778 88.1904 128.286 88.1904C133.795 88.1904 138.276 86.2441 138.276 83.8536C138.276 81.4623 133.795 79.5168 128.286 79.5168ZM128.286 88.3313C122.7 88.3313 118.156 86.3222 118.156 83.8536C118.156 81.3842 122.7 79.3758 128.286 79.3758C133.873 79.3758 138.417 81.3842 138.417 83.8536C138.417 86.3222 133.873 88.3313 128.286 88.3313Z" fill="#262724"/>
<path d="M136.877 83.8538C136.877 85.9322 133.031 87.6167 128.286 87.6167C123.543 87.6167 119.696 85.9322 119.696 83.8538C119.696 81.7755 123.543 80.0901 128.286 80.0901C133.031 80.0901 136.877 81.7755 136.877 83.8538Z" fill="#5C0000"/>
<path d="M150.808 86.8124H140.691C140.107 86.8124 139.633 86.3391 139.633 85.754V84.9733C139.633 84.3891 140.107 83.9149 140.691 83.9149H150.808C151.393 83.9149 151.866 84.3891 151.866 84.9733V85.754C151.866 86.3391 151.393 86.8124 150.808 86.8124Z" fill="#5C0000"/>
<path d="M153.016 67.4699C150.978 70.8906 151.799 75.2926 154.933 77.749L169.572 89.2268L166.021 111.625C165.604 114.26 165.756 116.954 166.47 119.526L171.504 137.675L165.87 144.274L175.903 142.788C177.562 142.542 178.706 140.997 178.458 139.339L174.883 115.463L183.263 94.4862C185.552 90.0228 184.656 84.5872 181.055 81.0946L165.154 65.6747C161.452 62.2937 155.58 63.1623 153.016 67.4699Z" fill="white"/>
<path d="M153.015 67.4689L153.077 67.5053C151.064 70.8861 151.88 75.2661 154.976 77.6936L169.649 89.1965L166.092 111.636C165.672 114.28 165.822 116.928 166.538 119.507L171.583 137.692L166.046 144.177L175.893 142.718C176.677 142.602 177.368 142.188 177.839 141.551C178.31 140.915 178.506 140.133 178.389 139.35L174.811 115.454L174.819 115.436L183.197 94.4602C185.491 89.9879 184.609 84.6395 181.006 81.1454L165.105 65.7243C163.357 64.13 161.012 63.4131 158.669 63.7591C156.326 64.1062 154.288 65.4717 153.077 67.5053L153.015 67.4689ZM165.695 144.372L171.426 137.658L166.403 119.544C165.681 116.946 165.53 114.278 165.952 111.613L169.497 89.2566L154.89 77.8047C151.737 75.3334 150.905 70.8746 152.955 67.4336L153.015 67.4689L152.955 67.4336C154.189 65.3625 156.263 63.9719 158.648 63.6191C161.032 63.2674 163.421 63.9969 165.202 65.6219L181.104 81.044C182.883 82.7679 184.034 84.9714 184.438 87.4147C184.84 89.8587 184.457 92.315 183.325 94.5185L174.957 115.471L178.528 139.329C178.652 140.149 178.447 140.969 177.953 141.635C177.459 142.302 176.735 142.736 175.914 142.858L165.695 144.372Z" fill="#262724"/>
<path d="M169.601 89.1592L157.719 79.8435L155.709 77.075L158.86 68.3723L169.807 80.5345C171.243 82.1301 171.623 84.4138 170.782 86.3888L169.601 89.1592Z" fill="#CED0C8"/>
<path d="M169.573 89.2267L157.87 80.052L157.718 79.8437L169.601 89.1594L169.573 89.2267Z" fill="#262724"/>
<path d="M153.367 68.8936C155.271 66.9903 158.432 67.2678 159.975 69.4738L168.601 81.8098C170.088 83.9358 168.68 86.8702 166.091 87.0413L150.097 88.1002L148.264 88.787C146.211 89.5568 143.903 89.1726 142.209 87.778V86.8125L146.072 83.4323L149.291 83.9151L161.686 82.3056L153.578 75.2119C151.694 73.5632 151.597 70.6644 153.367 68.8936Z" fill="white"/>
<path d="M142.28 87.7448C143.946 89.1013 146.227 89.4755 148.24 88.721L150.091 88.0295L166.087 86.971C167.276 86.8921 168.295 86.2035 168.811 85.1283C169.326 84.053 169.227 82.8272 168.544 81.85L159.918 69.5142C159.194 68.4797 158.058 67.8226 156.801 67.7134C155.545 67.6022 154.31 68.0514 153.418 68.9434L153.368 68.8935L153.418 68.9434C152.575 69.7856 152.133 70.9054 152.173 72.0959C152.212 73.2864 152.728 74.374 153.624 75.159L161.85 82.355L149.291 83.9862L146.094 83.5067L142.28 86.8441V87.7448ZM146.117 89.2461C144.696 89.2461 143.291 88.7604 142.165 87.8322L142.139 87.8111V86.7801L146.05 83.3577L149.292 83.8438L161.521 82.2554L153.532 75.265C152.606 74.454 152.073 73.3311 152.032 72.1001C151.991 70.8711 152.447 69.7139 153.318 68.8436C154.24 67.9214 155.514 67.4577 156.813 67.572C158.112 67.6864 159.286 68.3643 160.033 69.4332L168.659 81.7692C169.372 82.7887 169.476 84.0674 168.938 85.1888C168.4 86.3108 167.337 87.0297 166.096 87.1119L150.111 88.1694L148.29 88.8527C147.586 89.1167 146.849 89.2461 146.117 89.2461Z" fill="#262724"/>
<path d="M80.2361 57.3493L89.2903 68.5238C90.9981 70.6327 90.8089 73.6966 88.8541 75.5782L78.6199 85.4264L77.5209 80.1095L85.1084 72.2512L76.7551 64.11L80.2361 57.3493Z" fill="#CED0C8"/>
<path d="M77.597 80.1319L78.6628 85.2878L88.8044 75.528C90.7483 73.6574 90.9338 70.666 89.235 68.5687L80.2494 57.4781L76.8419 64.0961L85.2083 72.2511L77.597 80.1319ZM78.5766 85.5665L77.4443 80.0876L77.4703 80.0609L85.0091 72.2533L76.6678 64.1244L80.2234 57.2216L89.345 68.4809C91.0896 70.634 90.8995 73.7078 88.9021 75.6295L78.5766 85.5665Z" fill="#6C2626"/>
<path d="M79.6718 82.7981L84.5444 108.507L82.5279 134.049L86.8969 139.258L76.3067 135.697C74.5318 135.1 73.3794 133.386 73.4972 131.517L75.0261 107.163L68.1444 81.7058L79.6718 82.7981Z" fill="#CED0C8"/>
<path d="M68.239 81.7863L75.0973 107.157L75.0967 107.168L73.5672 131.522C73.4518 133.356 74.5879 135.044 76.3286 135.63L86.6817 139.111L82.4553 134.073L84.4728 108.511L79.6117 82.8641L68.239 81.7863ZM87.1114 139.405L76.2838 135.764C74.4823 135.158 73.3069 133.41 73.4266 131.513L74.9549 107.171L68.05 81.6267L79.7307 82.7333L79.7405 82.7855L84.6152 108.504L84.6145 108.514L82.6001 134.026L87.1114 139.405Z" fill="#6C2626"/>
<path d="M66.9259 56.4166H77.5856C80.3474 56.4166 82.3699 59.0186 81.6875 61.695L78.7283 73.3138C78.5746 73.9163 78.5561 74.5449 78.6729 75.155L79.6719 82.7979H62.028L61.9987 76.4498C62.0184 76.313 62.0309 76.1755 62.0367 76.0372L62.6965 60.4709C62.7921 58.2048 64.6575 56.4166 66.9259 56.4166Z" fill="white"/>
<path d="M62.0979 82.7276H79.5912L78.6024 75.1642C78.4848 74.5522 78.5048 73.9048 78.6593 73.2966L81.6187 61.6775C81.9386 60.4234 81.6664 59.1171 80.8714 58.0953C80.0771 57.0734 78.8792 56.4876 77.5852 56.4876H66.9256C64.6879 56.4876 62.8611 58.2383 62.7664 60.4742L62.1071 76.0407C62.1008 76.1807 62.0878 76.3214 62.0685 76.4605L62.0979 82.7276ZM79.7519 82.8691H61.9575L61.9281 76.4505C61.9479 76.306 61.9604 76.1699 61.9661 76.0346L62.6254 60.468C62.7235 58.1568 64.6125 56.3461 66.9256 56.3461H77.5852C78.9231 56.3461 80.1617 56.952 80.9836 58.0092C81.8048 59.0656 82.0862 60.4157 81.7556 61.7128L78.7962 73.3312C78.647 73.9194 78.6278 74.546 78.7416 75.1419L79.7519 82.8691Z" fill="#262724"/>
<path d="M62.0277 82.7984C62.3638 87.6711 63.54 107.164 63.54 107.164L60.0569 136.086C59.8319 137.955 60.8965 139.739 62.6471 140.429L70.7656 143.627L68.0766 136.066L73.2854 107.164C73.2854 107.164 73.1495 96.8518 74.5064 91.3404C75.9028 85.6651 76.755 82.7984 76.755 82.7984H62.0277Z" fill="white"/>
<path d="M62.1031 82.8694C62.4424 87.8093 63.5988 106.966 63.6103 107.159L60.1272 136.095C59.9061 137.931 60.9528 139.686 62.6731 140.363L70.6469 143.505L68.004 136.072L68.0076 136.053L73.2164 107.151C73.214 107.061 73.095 96.781 74.4371 91.3239C75.684 86.2602 76.5053 83.4005 76.6607 82.8694H62.1031ZM70.8837 143.749L62.6215 140.495C60.8417 139.794 59.7584 137.977 59.9868 136.078L63.4701 107.155C63.458 106.973 62.2895 87.6205 61.9568 82.8032L61.952 82.7279H76.8488L76.8221 82.819C76.8136 82.8469 75.9547 85.749 74.5743 91.3573C73.2365 96.7968 73.3548 107.06 73.3567 107.163L68.1496 136.06L70.8837 143.749Z" fill="#262724"/>
<path d="M74.2504 58.9819C74.2422 58.9819 74.2336 58.9819 74.2258 58.9819C72.2912 58.9628 69.7522 56.6916 69.7522 56.6916H76.7547C76.7547 56.6916 76.1653 58.9819 74.2504 58.9819Z" fill="#CED0C8"/>
<path d="M62.3151 71.1355L62.5435 65.7413L65.4519 64.9859C66.1646 64.8003 66.8008 64.445 67.3163 63.9517L62.3151 71.1355Z" fill="#CED0C8"/>
<path d="M62.2396 71.2433L62.4719 65.7605L62.5431 65.742L62.3146 71.136L62.2396 71.2433Z" fill="#262724"/>
<path d="M68.6136 50.6085C66.8247 44.03 73.434 42.468 77.0989 45.1291C80.7643 47.7902 77.0633 58.8232 73.7995 57.7514C70.5358 56.6796 69.5787 54.1569 68.6136 50.6085Z" fill="white"/>
<path d="M73.2307 43.9655C72.1141 43.9655 71.034 44.2565 70.179 44.846C68.518 45.9929 67.9857 48.0329 68.6815 50.5905C69.6269 54.0667 70.5488 56.6106 73.8213 57.6845C74.8604 58.0264 76.0781 57.0602 77.0797 55.1015C78.5883 52.1513 79.4481 46.9226 77.0571 45.187C75.9439 44.3778 74.5613 43.9655 73.2307 43.9655ZM74.2411 57.8932C74.0838 57.8932 73.9289 57.8686 73.7775 57.8185C70.4377 56.7226 69.5024 54.1464 68.5454 50.6269C67.8328 48.0075 68.3848 45.9131 70.0991 44.7298C72.0189 43.4048 75.0456 43.5524 77.1403 45.0725C79.5943 46.8539 78.7364 52.1716 77.2058 55.1652C76.3113 56.9151 75.2336 57.8932 74.2411 57.8932Z" fill="#262724"/>
<path d="M62.8329 56.991L51.2358 61.6224C49.6061 62.2734 48.9665 64.2443 49.9038 65.7275L51.6542 68.4982L65.434 64.917C67.7336 64.3198 69.0729 61.9283 68.3813 59.6553C67.6687 57.3146 65.1055 56.0834 62.8329 56.991Z" fill="white"/>
<path d="M64.382 56.7651C63.8645 56.7651 63.3471 56.8618 62.8591 57.0569L51.262 61.688C50.5046 61.9906 49.9256 62.6089 49.6741 63.3846C49.4221 64.161 49.5279 65.0012 49.9636 65.6901L51.6861 68.4173L65.4159 64.8492C66.5094 64.5658 67.4154 63.8661 67.9675 62.8807C68.5195 61.8954 68.6422 60.7572 68.3132 59.6766C67.9795 58.5791 67.1952 57.6652 66.1613 57.169C65.6015 56.9002 64.9923 56.7651 64.382 56.7651ZM51.6217 68.5794L49.8438 65.7662C49.3861 65.0404 49.2749 64.1572 49.5399 63.3415C49.8044 62.5259 50.4132 61.8754 51.2096 61.5575L62.8066 56.9263L62.8326 56.9916L62.8066 56.9263C63.9083 56.4863 65.1533 56.5285 66.2223 57.0416C67.2919 57.5554 68.1031 58.5008 68.4484 59.6351C68.7883 60.7533 68.6614 61.9299 68.0906 62.9491C67.5198 63.969 66.5821 64.6925 65.4515 64.9859L51.6217 68.5794Z" fill="#262724"/>
<path d="M51.5155 68.5164C51.4943 68.5164 51.4982 68.5095 51.5647 68.4886L51.5782 68.5101C51.5536 68.5136 51.5291 68.5164 51.5155 68.5164Z" fill="#D84F4F"/>
<path d="M51.6862 68.4173L51.5531 68.2067L49.7863 63.0955C49.8089 63.0458 49.833 62.9969 49.8579 62.9495L57.0654 59.3705L57.8387 59.0621C57.7521 59.8512 56.9698 66.2946 54.41 67.7095L51.6862 68.4173Z" fill="#CED0C8"/>
<path d="M51.5784 68.5098L51.5649 68.4879C51.5851 68.4819 51.6106 68.4744 51.6428 68.4654L51.6543 68.4977C51.6543 68.4977 51.6163 68.5045 51.5784 68.5098ZM51.6428 68.4654L51.5533 68.2057L51.6865 68.4164L54.4102 67.7089C54.2309 67.8083 54.0428 67.882 53.8453 67.9287C52.479 68.2471 51.8803 68.3976 51.6428 68.4654ZM49.7866 63.0949L49.7538 63.0008L49.8582 62.9488C49.8332 62.9962 49.8091 63.0452 49.7866 63.0949ZM57.0658 59.3705L57.8477 58.9821C57.8477 58.9821 57.8448 59.0092 57.839 59.0611L57.0658 59.3705Z" fill="#262724"/>
<path d="M58.4707 47.2149L48.1013 62.8739C46.8515 64.7615 47.6048 67.3188 49.6776 68.2283C51.5911 69.0668 53.8166 68.129 54.5538 66.1746L61.3492 48.1544L63.4407 47.7091C64.4817 47.4873 65.1511 46.469 64.9424 45.4258L64.7429 44.4281L66.1447 43.8954C66.1447 43.8954 66.9757 45.8189 67.808 45.2426C68.6409 44.6662 66.1447 42.0738 66.1447 42.0738L61.6628 43.8954L58.4707 47.2149Z" fill="white"/>
<path d="M58.526 47.2591L48.16 62.9137C47.5759 63.7955 47.4123 64.8838 47.7111 65.8985C48.01 66.9131 48.737 67.7383 49.706 68.1633C50.6134 68.561 51.6161 68.5687 52.5298 68.1839C53.4429 67.7991 54.1383 67.0767 54.4879 66.1495L61.2968 48.0938L63.4261 47.6405C64.4239 47.4271 65.0737 46.4399 64.8731 45.4398L64.662 44.3832L66.1826 43.8056L66.209 43.8673C66.2143 43.8802 66.7423 45.0868 67.3478 45.2599C67.4959 45.3019 67.6334 45.2779 67.7681 45.1845C67.8493 45.1288 67.894 45.0482 67.9051 44.9394C67.9825 44.163 66.3778 42.4243 66.1263 42.1577L61.7031 43.9556L58.526 47.2591ZM51.1409 68.6081C50.6351 68.6081 50.1296 68.5035 49.6492 68.2927C48.6422 67.8514 47.8864 66.9928 47.5759 65.9379C47.2651 64.883 47.4352 63.7527 48.0423 62.8357L58.4157 47.17L58.4201 47.1657L61.6223 43.8356L66.1624 41.9906L66.1951 42.0249C66.2744 42.1072 68.1354 44.0516 68.0455 44.9531C68.0306 45.1039 67.9643 45.2205 67.8484 45.301C67.6791 45.4175 67.4978 45.4493 67.3088 45.3953C66.7168 45.2256 66.2278 44.2453 66.1076 43.9856L64.8236 44.4732L65.0116 45.4116C65.2271 46.4879 64.5288 47.5496 63.4555 47.7784L61.4016 48.2155L54.6197 66.2001C54.2566 67.1633 53.5333 67.914 52.5841 68.3133C52.1181 68.5096 51.6295 68.6081 51.1409 68.6081Z" fill="#262724"/>
<path d="M86.1262 144.014L117.1 123.811L148.075 131.739L117.1 151.767L86.1262 144.014Z" fill="#CBB77C"/>
<path d="M86.1268 144.466L117.101 124.438V107.336L86.1268 127.364V144.466Z" fill="#CBB77C"/>
<path d="M86.1965 127.402V144.337L117.031 124.4V107.465L86.1965 127.402ZM86.0556 144.596V127.325L86.088 127.305L117.172 107.206V124.477L117.139 124.497L86.0556 144.596Z" fill="#262724"/>
<path d="M116.92 152.68L85.9451 144.927L86.1268 127.462L117.101 135.214L116.92 152.68Z" fill="#C7412A"/>
<path d="M86.0157 144.873L116.85 152.59L117.03 135.27L86.1954 127.552L86.0157 144.873ZM116.989 152.77L116.902 152.749L85.8733 144.982L85.874 144.927L86.0566 127.372L86.1429 127.394L117.172 135.16L117.171 135.216L116.989 152.77Z" fill="#262724"/>
<path d="M148.076 132.115L117.1 124.362V107.26L148.076 115.012V132.115Z" fill="#C7412A"/>
<path d="M117.171 124.307L148.005 132.024V115.067L117.171 107.35V124.307ZM148.146 132.205L148.059 132.183L117.03 124.417V107.169L117.118 107.191L148.146 114.957V132.205Z" fill="#262724"/>
<path d="M116.686 152.354L147.661 132.326L148.076 115.187L117.101 135.215L116.686 152.354Z" fill="#CBB77C"/>
<path d="M117.171 135.253L116.76 152.222L147.591 132.287L148.003 115.318L117.171 135.253ZM116.612 152.486L116.615 152.352L117.032 135.176L117.063 135.155L148.15 115.055L148.147 115.188L147.73 132.365L147.699 132.385L116.612 152.486Z" fill="#262724"/>
<path d="M86.1268 127.462L80.0483 139.302L109.953 147.209L117.101 135.214L86.1268 127.462Z" fill="#FFE9AC"/>
<path d="M80.1514 139.257L109.918 147.128L116.992 135.26L86.1636 127.544L80.1514 139.257ZM109.985 147.291L109.934 147.278L79.9457 139.348L86.0888 127.38L86.1435 127.393L117.21 135.169L109.985 147.291Z" fill="#262724"/>
<path d="M117.101 135.215L127.737 143.505L156.264 124.663L148.076 115.187L117.101 135.215Z" fill="#FFE9AC"/>
<path d="M117.222 135.22L127.74 143.418L156.157 124.649L148.063 115.279L117.222 135.22ZM127.734 143.592L116.98 135.209L117.063 135.155L148.09 115.094L156.369 124.678L127.734 143.592Z" fill="#262724"/>
<path d="M117.1 107.26L125.015 106.274L152.163 113.508L148.076 115.186L117.1 107.26Z" fill="#FFE9AC"/>
<path d="M117.479 107.284L148.07 115.112L151.943 113.523L125.009 106.346L117.479 107.284ZM148.081 115.261L116.723 107.235L125.019 106.203L125.032 106.206L152.384 113.494L148.081 115.261Z" fill="#262724"/>
<path d="M86.1268 127.462C86.1268 127.462 78.6553 125.789 80.0957 125.789C81.5362 125.789 108.883 107.336 108.883 107.336L117.101 107.26L86.1268 127.462Z" fill="#FFE9AC"/>
<path d="M80.0898 125.86C80.7658 126.14 84.0175 126.917 86.1124 127.387L116.86 107.332L108.904 107.406C107.555 108.317 81.5339 125.86 80.0955 125.86H80.0898ZM86.1397 127.538L86.1109 127.531C86.0951 127.528 84.5322 127.177 82.9924 126.802C79.8177 126.028 79.8299 125.916 79.8414 125.817C79.8508 125.726 79.9674 125.718 80.0955 125.718C81.2178 125.718 99.39 113.656 108.843 107.277L108.86 107.265H108.881L117.342 107.187L86.1397 127.538Z" fill="#262724"/>
<path d="M77.9761 36.0736L77.7881 36.0565C77.1971 36.0035 76.7614 35.4808 76.8142 34.8899L77.4019 28.3475C77.4553 27.7566 77.9775 27.321 78.568 27.374L78.7561 27.3911C79.3471 27.4441 79.7832 27.9659 79.7298 28.5568L79.1422 35.0992C79.0893 35.6901 78.5671 36.1266 77.9761 36.0736Z" fill="#5C0000"/>
<path d="M77.6592 39.6081L77.4707 39.5913C76.8801 39.5381 76.4439 39.0161 76.4968 38.425L76.5141 38.2371C76.567 37.6459 77.0893 37.2099 77.6798 37.2631L77.8683 37.2799C78.4588 37.3331 78.8951 37.8551 78.8422 38.4462L78.8248 38.6341C78.7719 39.2253 78.2497 39.6613 77.6592 39.6081Z" fill="#5C0000"/>
<path d="M82.6322 39.171L82.5004 39.1098C82.086 38.9162 81.9066 38.424 82.0999 38.0095L84.2379 33.4218C84.4312 33.0072 84.9237 32.8282 85.3381 33.0209L85.4699 33.083C85.8839 33.2757 86.0634 33.7688 85.8705 34.1824L83.7325 38.7701C83.5391 39.1847 83.0468 39.3646 82.6322 39.171Z" fill="#5C0000"/>
<path d="M81.4772 41.6497L81.345 41.5887C80.9309 41.3955 80.7516 40.9027 80.9444 40.4883L81.006 40.3568C81.1992 39.9424 81.6917 39.7631 82.1062 39.9563L82.238 40.0173C82.652 40.2106 82.8314 40.7033 82.6385 41.1177L82.577 41.2492C82.3837 41.6636 81.8913 41.8429 81.4772 41.6497Z" fill="#5C0000"/>
<path d="M23.8607 46.912L22.2061 46.5549L22.2657 46.2791L23.9202 46.6363L23.8607 46.912ZM38.2001 50.0103L25.5153 47.27L25.5747 46.9943L38.2596 49.7345L38.2001 50.0103ZM41.5091 50.7246L39.8546 50.3675L39.9142 50.0917L41.5687 50.4489L41.5091 50.7246ZM15.2429 52.2472H14.9608V50.5544H15.2429V52.2472ZM15.2429 66.9178H14.9608V53.94H15.2429V66.9178ZM15.2429 70.3026H14.9608V68.6098H15.2429V70.3026ZM15.2429 84.9733H14.9608V83.2804H15.2429V84.9733ZM51.5497 97.0913L51.5449 96.8098L53.2371 96.779L53.2424 97.0614L51.5497 97.0913ZM36.8822 97.3571L36.8771 97.0756L49.8521 96.8405L49.8574 97.1221L36.8822 97.3571ZM33.4973 97.4186L33.4922 97.1362L35.1847 97.1055L35.1898 97.3879L33.4973 97.4186ZM18.8297 97.6836L18.8245 97.402L20.5169 97.3713L20.5221 97.6529L18.8297 97.6836ZM14.9608 97.7542V86.6661H15.2429V97.466L17.1321 97.4319L17.1372 97.7143L14.9608 97.7542Z" fill="white"/>
<path d="M115.368 64.4537L115.342 64.173C115.896 64.1226 116.468 64.0876 117.04 64.0705L117.049 64.352C116.482 64.3691 115.917 64.4033 115.368 64.4537ZM103.148 71.1513L102.9 71.0179C105.285 66.5805 110.064 64.9622 113.653 64.3854L113.698 64.6636C110.172 65.2299 105.479 66.8156 103.148 71.1513ZM102.032 74.2869L101.755 74.2308C101.871 73.6629 102.023 73.1088 102.209 72.5833L102.475 72.6768C102.293 73.1902 102.144 73.7321 102.032 74.2869ZM107.44 87.0052C107 86.6098 106.584 86.2184 106.201 85.8409L106.398 85.64C106.779 86.0142 107.192 86.4031 107.629 86.7953L107.44 87.0052ZM119.121 95.919C118.316 95.3316 117.503 94.745 116.69 94.1584C113.956 92.1854 111.129 90.1457 108.722 88.1198L108.903 87.9034C111.303 89.9228 114.125 91.9592 116.855 93.929C117.668 94.5156 118.482 95.1038 119.287 95.6912L119.121 95.919ZM121.836 97.9425C121.413 97.6195 120.971 97.2859 120.483 96.9238L120.652 96.6968C121.14 97.0605 121.583 97.3941 122.007 97.7187L121.836 97.9425ZM131.498 108.642C131.299 108.134 131.063 107.623 130.794 107.122L131.043 106.989C131.317 107.499 131.557 108.021 131.761 108.54L131.498 108.642ZM127.882 121.684L127.719 121.454C130.696 119.337 132.335 116.299 132.335 112.898C132.335 112.022 132.225 111.126 132.006 110.236L132.279 110.168C132.504 111.081 132.618 111.999 132.618 112.898C132.618 116.392 130.936 119.512 127.882 121.684ZM124.889 123.316L124.782 123.055C125.307 122.84 125.817 122.599 126.298 122.338L126.432 122.586C125.942 122.852 125.423 123.097 124.889 123.316Z" fill="white"/>
<path d="M122.675 102.81C121.812 102.292 121.203 101.999 121.198 101.997L121.32 101.742C121.326 101.745 121.945 102.042 122.821 102.569L122.675 102.81ZM127.944 114.43L127.719 114.259C127.879 114.049 128.03 113.833 128.167 113.617C128.761 112.684 129.061 111.721 129.061 110.754C129.061 107.827 126.357 105.318 124.089 103.728L124.251 103.497C126.575 105.125 129.343 107.705 129.343 110.754C129.343 111.776 129.028 112.789 128.405 113.768C128.263 113.992 128.108 114.214 127.944 114.43ZM125.503 116.814L125.332 116.59C125.807 116.226 126.223 115.869 126.605 115.501L126.801 115.704C126.41 116.08 125.987 116.443 125.503 116.814ZM114.141 125.613L113.878 125.511C114.078 124.993 114.36 124.488 114.714 124.007L114.941 124.175C114.601 124.635 114.332 125.119 114.141 125.613ZM113.644 129.374C113.529 128.813 113.471 128.267 113.471 127.751C113.471 127.561 113.479 127.372 113.494 127.188L113.775 127.212C113.76 127.388 113.753 127.569 113.753 127.751C113.753 128.247 113.809 128.775 113.921 129.317L113.644 129.374Z" fill="white"/>
<path d="M121.485 64.0082L121.193 62.7578C121.151 62.5789 121.262 62.4007 121.441 62.3588L123.393 61.9027C123.572 61.8608 123.75 61.972 123.792 62.1509L124.084 63.4021C124.126 63.5803 124.015 63.7592 123.836 63.8003L121.884 64.2565C121.706 64.2984 121.527 64.1872 121.485 64.0082Z" fill="#5C0000"/>
<path d="M118.981 64.8313L118.583 63.1279C118.526 62.8846 118.678 62.6413 118.921 62.5842L121.422 62.0006C121.666 61.9435 121.909 62.0945 121.966 62.3378L122.363 64.042C122.42 64.2853 122.269 64.5286 122.026 64.585L119.524 65.1693C119.281 65.2256 119.038 65.0746 118.981 64.8313Z" fill="#5C0000"/>
<path d="M122.688 63.075C122.707 63.1552 123.619 64.5446 124.237 65.4811C124.508 65.8913 124.278 66.4451 123.789 66.5597C123.399 66.6506 123.011 66.4153 122.922 66.0349L122.584 64.5874L121.998 66.4619C121.955 66.6002 121.821 66.6903 121.675 66.6819C121.497 66.6704 121.366 66.5177 121.385 66.3443L121.775 63.2598L122.688 63.075Z" fill="#F4DDDD"/>
<path d="M121.838 63.3192L121.455 66.3536C121.448 66.4155 121.467 66.4773 121.508 66.5262C121.551 66.5766 121.611 66.6071 121.678 66.6117C121.792 66.6186 121.896 66.5483 121.93 66.4414L122.594 64.3202L122.991 66.0192C123.03 66.1841 123.132 66.3246 123.279 66.4139C123.427 66.504 123.602 66.5315 123.773 66.4911C123.984 66.4414 124.157 66.2941 124.236 66.0963C124.312 65.9023 124.292 65.6931 124.177 65.5198C123.021 63.7682 122.726 63.2955 122.649 63.155L121.838 63.3192ZM121.695 66.753C121.687 66.753 121.678 66.753 121.67 66.7522C121.564 66.7453 121.468 66.6972 121.4 66.617C121.334 66.5384 121.304 66.4391 121.315 66.3368L121.71 63.2008L122.741 62.9932L122.756 63.0565C122.775 63.1023 122.967 63.4299 124.296 65.4427C124.435 65.6542 124.461 65.9115 124.367 66.1482C124.271 66.3895 124.06 66.5689 123.805 66.6285C123.598 66.6766 123.385 66.643 123.206 66.5346C123.026 66.4261 122.901 66.2536 122.853 66.0512L122.575 64.8555L122.065 66.4834C122.014 66.6453 121.864 66.753 121.695 66.753Z" fill="#262724"/>
<path d="M122.676 63.0205C122.658 62.9404 122.86 61.2901 122.999 60.178C123.061 59.6888 122.609 59.2939 122.12 59.4087C121.731 59.4993 121.487 59.882 121.576 60.2625L121.913 61.7106L120.557 60.289C120.458 60.1848 120.297 60.1621 120.17 60.2354C120.016 60.3237 119.967 60.5192 120.061 60.6657L121.775 63.259L122.676 63.0205Z" fill="#F4DDDD"/>
<path d="M120.331 60.263C120.288 60.263 120.245 60.2744 120.205 60.297C120.146 60.3302 120.106 60.3846 120.09 60.4488C120.075 60.5107 120.085 60.5742 120.119 60.6278L121.806 63.1789L122.605 62.966C122.614 62.8043 122.668 62.247 122.929 60.1686C122.954 59.9632 122.881 59.7661 122.727 59.6271C122.568 59.4844 122.347 59.4285 122.136 59.4776C121.784 59.5599 121.564 59.9051 121.644 60.2472L122.04 61.9464L120.506 60.3378C120.459 60.2887 120.396 60.263 120.331 60.263ZM121.744 63.3405L120.001 60.7048C119.945 60.6172 119.928 60.5153 119.953 60.4148C119.978 60.3129 120.042 60.2275 120.134 60.1747C120.291 60.0848 120.485 60.112 120.608 60.2404L121.785 61.4744L121.507 60.2789C121.409 59.8612 121.677 59.4398 122.104 59.3401C122.36 59.2805 122.628 59.3485 122.821 59.5222C123.01 59.6928 123.101 59.9345 123.069 60.1868C122.858 61.8649 122.738 62.9199 122.745 63.009L122.761 63.0755L122.694 63.0891L121.744 63.3405Z" fill="#262724"/>
<path d="M182.915 35.433H181.223V35.1517H182.915V35.433ZM197.585 35.433H195.892V35.1517H197.585V35.433ZM174.125 42.7243H173.843V35.1517H179.53V35.433H174.125V42.7243ZM174.125 46.1095H173.843V44.4169H174.125V46.1095ZM200.215 47.4729H199.933V35.433H199.278V35.1517H200.215V47.4729ZM200.215 50.8581H199.933V49.1655H200.215V50.8581ZM182.019 52.8873H180.326V52.6048H182.019V52.8873ZM196.688 52.8873H183.711V52.6048H196.688V52.8873ZM200.073 52.8873H198.381V52.6048H200.073V52.8873Z" fill="white"/>
<path d="M198.314 51.3105H175.602V36.9455H198.314V51.3105Z" fill="#FDE5E5"/>
<path d="M176.01 51.0246V47.636L180.703 46.3429L184.974 47.636L195.026 45.7625L197.905 46.973V51.0246H176.01Z" fill="#8F0000"/>
<path d="M195.172 41.584C195.172 42.9286 194.083 44.0182 192.738 44.0182C191.393 44.0182 190.304 42.9286 190.304 41.584C190.304 40.2393 191.393 39.1497 192.738 39.1497C194.083 39.1497 195.172 40.2393 195.172 41.584Z" fill="#8F0000"/>
<path d="M193.113 47.8704L193.051 47.5682C192.501 44.8539 191.351 42.8472 191.339 42.827L191.461 42.7569C191.472 42.7759 192.55 44.6552 193.125 47.2388C193.725 44.7135 193.582 42.9246 192.679 41.6245L192.796 41.5436C193.758 42.9305 193.883 44.8456 193.189 47.5706L193.113 47.8704Z" fill="#262724"/>
<path d="M193.605 44.6632L193.508 44.5601C195.083 43.0829 194.406 42.2024 194.377 42.1652L194.486 42.0766C194.52 42.1173 195.282 43.0901 193.605 44.6632Z" fill="#262724"/>
<path d="M179.829 39.8095C179.829 40.5674 179.214 41.1819 178.456 41.1819C177.698 41.1819 177.084 40.5674 177.084 39.8095C177.084 39.0516 177.698 38.4371 178.456 38.4371C179.214 38.4371 179.829 39.0516 179.829 39.8095Z" fill="white"/>
</g>
<defs>
<clipPath id="clip0_1630_14998">
<rect width="227" height="181.672" fill="white"/>
</clipPath>
</defs>
</svg>
