<svg width="169" height="261" viewBox="0 0 169 261" fill="none" xmlns="http://www.w3.org/2000/svg">
<path d="M87.6862 12.1003C80.5874 15.9723 74.1339 20.9738 68.3258 27.1046C64.456 31.2021 61.0679 35.7813 58.1616 40.8424L55.3272 119.551C55.3272 107.934 58.1228 98.7557 61.0269 90.3662C64.2536 81.654 69.7778 73.5696 74.6179 67.7615C79.7807 61.9533 85.2662 57.7586 91.0743 55.1772C97.2051 52.2731 103.175 50.8211 108.983 50.8211C115.436 50.8211 121.083 51.9504 125.923 54.2092C131.086 56.4679 136.733 57.5972 142.863 57.5972C149.317 57.5972 155.286 55.3385 160.772 50.8211C166.257 45.981 169 38.2368 169 27.5886C169 20.1671 165.612 13.7136 158.836 8.22819C152.382 2.74273 144.315 0 134.635 0C126.568 0 118.502 0.968013 110.435 2.90405C102.368 4.84009 94.785 7.90549 87.6862 12.1003Z" fill="url(#paint0_linear_473_15234)"/>
<path d="M58.1925 52.1017L55.3272 119.551L58.1616 40.8424L58.1925 52.1017Z" fill="#F0F0F0"/>
<defs>
<linearGradient id="paint0_linear_473_15234" x1="112.821" y1="56.523" x2="58.1371" y2="56.523" gradientUnits="userSpaceOnUse">
<stop stop-color="#F0F0F0"/>
<stop offset="1" stop-color="#F0F0F0" stop-opacity="0.6"/>
</linearGradient>
</defs>
</svg>
