<svg width="106" height="32" viewBox="0 0 106 32" fill="none" xmlns="http://www.w3.org/2000/svg">
<path d="M106 3.44975C106 4.80274 104.903 5.89956 103.55 5.89956C102.197 5.89956 101.1 4.80274 101.1 3.44975C101.1 2.09676 102.197 0.999939 103.55 0.999939C104.903 0.999939 106 2.09676 106 3.44975Z" fill="#F0F0F0"/>
<mask id="path-2-outside-1_1423_20616" maskUnits="userSpaceOnUse" x="12.0278" y="0.0653687" width="93" height="25" fill="black">
<rect fill="white" x="12.0278" y="0.0653687" width="93" height="25"/>
<path d="M21.3897 24.5538C19.7194 24.5538 18.2579 24.1988 17.0052 23.489C15.7525 22.7791 14.7712 21.8082 14.0613 20.5764C13.3723 19.3237 13.0278 17.8831 13.0278 16.2545C13.0278 14.4381 13.3828 12.8931 14.0926 11.6195C14.8234 10.325 15.7629 9.34373 16.9112 8.67561C18.0804 7.98662 19.3123 7.64212 20.6068 7.64212C21.5672 7.64212 22.4963 7.81959 23.394 8.17453C24.2918 8.52946 25.0852 9.05143 25.7742 9.74042C26.4632 10.4085 27.0165 11.2228 27.4341 12.1832C27.8516 13.1227 28.0708 14.1771 28.0917 15.3463C28.0917 15.6804 27.9665 15.9622 27.7159 16.1919C27.4654 16.4216 27.1731 16.5364 26.839 16.5364H15.3032C14.8115 16.5364 14.3819 16.2044 14.2577 15.7287C14.0792 15.0441 14.5957 14.3755 15.3032 14.3755H25.5979C25.7242 14.3755 25.7831 14.5321 25.688 14.6153C25.5995 14.6927 25.461 14.6299 25.461 14.5123V14.1249C25.3775 13.2689 25.0852 12.5381 24.5841 11.9327C24.1039 11.3063 23.5089 10.8261 22.799 10.492C22.11 10.158 21.3793 9.99096 20.6068 9.99096C19.9804 9.99096 19.354 10.1058 18.7277 10.3355C18.1222 10.5442 17.5689 10.8992 17.0678 11.4003C16.5876 11.8805 16.1909 12.5068 15.8778 13.2793C15.5855 14.0518 15.4393 14.9809 15.4393 16.0666C15.4393 17.2776 15.6794 18.3424 16.1596 19.2611C16.6607 20.1797 17.3497 20.9105 18.2266 21.4533C19.1035 21.9753 20.1265 22.2362 21.2957 22.2362C22.0265 22.2362 22.6633 22.1423 23.2061 21.9544C23.749 21.7665 24.2188 21.5368 24.6154 21.2654C24.9601 21.0114 25.2575 20.7575 25.5076 20.5035C25.5818 20.4281 25.6604 20.3562 25.7518 20.3028C25.9753 20.172 26.1916 20.1066 26.4006 20.1066C26.7137 20.1066 26.9643 20.211 27.1522 20.4198C27.361 20.6286 27.4654 20.8791 27.4654 21.1714C27.4654 21.4947 27.3268 21.7833 27.0497 22.0373C26.9944 22.0881 26.9393 22.1392 26.8879 22.1939C26.3112 22.8073 25.5433 23.3539 24.5841 23.8335C23.582 24.3137 22.5171 24.5538 21.3897 24.5538Z"/>
<path d="M39.0606 7.86135C40.0627 7.86135 40.9814 7.97618 41.8165 8.20584C42.6726 8.41463 43.3511 8.70693 43.8522 9.08274C44.3533 9.45856 44.6038 9.86569 44.6038 10.3041C44.6038 10.5129 44.5308 10.7217 44.3846 10.9305C44.2385 11.1393 44.0297 11.2437 43.7582 11.2437C43.5077 11.2437 43.2989 11.181 43.1319 11.0558C42.9857 10.9305 42.8291 10.7843 42.6621 10.6173C42.516 10.4503 42.2967 10.2937 42.0044 10.1476C41.7539 10.0223 41.3676 9.91789 40.8457 9.83437C40.3446 9.72998 39.7913 9.67778 39.1858 9.67778C38.0166 9.67778 36.9623 9.97008 36.0227 10.5547C35.0832 11.1184 34.342 11.8909 33.7992 12.8722C33.2772 13.8535 33.0162 14.9601 33.0162 16.1919C33.0162 17.4446 33.2668 18.5616 33.7678 19.5429C34.2898 20.5242 35.0101 21.3072 35.9288 21.8918C36.8474 22.4555 37.9122 22.7373 39.1232 22.7373C39.9375 22.7373 40.5743 22.6643 41.0336 22.5181C41.4929 22.372 41.8896 22.2049 42.2237 22.017C42.6204 21.7874 42.9127 21.5681 43.1006 21.3594C43.2885 21.1506 43.5286 21.0462 43.8209 21.0462C44.0923 21.0462 44.3011 21.1297 44.4472 21.2967C44.5934 21.4637 44.6665 21.6725 44.6665 21.9231C44.6665 22.2571 44.4159 22.6329 43.9148 23.0505C43.4137 23.4472 42.7352 23.8021 41.8792 24.1153C41.0231 24.4076 40.0314 24.5538 38.904 24.5538C37.359 24.5538 35.9914 24.1884 34.8013 23.4576C33.6321 22.7269 32.7135 21.7352 32.0454 20.4825C31.3981 19.2089 31.0745 17.7787 31.0745 16.1919C31.0745 14.6678 31.4086 13.2793 32.0767 12.0266C32.7448 10.753 33.6739 9.74042 34.864 8.98879C36.0541 8.23716 37.4529 7.86135 39.0606 7.86135Z"/>
<path d="M50.2905 23.3011C50.2905 23.5516 50.1965 23.7708 50.0086 23.9587C49.8207 24.1466 49.6015 24.2406 49.3509 24.2406C49.0795 24.2406 48.8498 24.1466 48.6619 23.9587C48.4949 23.7708 48.4114 23.5516 48.4114 23.3011V2.0049C48.4114 1.75436 48.5053 1.53514 48.6933 1.34723C48.8812 1.15932 49.1004 1.06537 49.3509 1.06537C49.6224 1.06537 49.8416 1.15932 50.0086 1.34723C50.1965 1.53514 50.2905 1.75436 50.2905 2.0049V23.3011Z"/>
<path d="M68.5321 8.39375C68.7827 8.39375 68.981 8.47726 69.1272 8.64429C69.2733 8.79044 69.3464 8.97835 69.3464 9.20802V23.4263C69.3464 23.6351 69.2629 23.823 69.0959 23.9901C68.9497 24.1571 68.7618 24.2406 68.5321 24.2406C68.2816 24.2406 68.0833 24.1571 67.9371 23.9901C67.791 23.823 67.7179 23.6351 67.7179 23.4263V19.5699C67.7179 19.4756 67.7678 19.3883 67.8491 19.3404C68.0266 19.2361 68.2462 19.3644 68.2182 19.5684C68.155 20.0285 67.9987 20.5002 67.7492 20.9835C67.4151 21.6308 66.9663 22.2258 66.4025 22.7687C65.8388 23.2906 65.1603 23.7186 64.3669 24.0527C63.5944 24.3867 62.7592 24.5538 61.8614 24.5538C60.4626 24.5538 59.2099 24.1884 58.1033 23.4576C56.9967 22.7269 56.1198 21.7352 55.4726 20.4825C54.8462 19.2089 54.5331 17.7787 54.5331 16.1919C54.5331 14.5842 54.8567 13.1645 55.5039 11.9327C56.1511 10.7008 57.028 9.72998 58.1346 9.02011C59.2412 8.31024 60.4835 7.9553 61.8614 7.9553C62.7592 7.9553 63.5944 8.12233 64.3669 8.45639C65.1603 8.76956 65.8493 9.20802 66.4338 9.77174C67.0185 10.3146 67.4778 10.9514 67.8118 11.6821C68.0464 12.1952 68.1986 12.7289 68.2685 13.2832C68.3016 13.5462 67.9924 13.6792 67.805 13.4918C67.7492 13.436 67.7179 13.3603 67.7179 13.2814V9.20802C67.7179 8.97835 67.791 8.79044 67.9371 8.64429C68.0833 8.47726 68.2816 8.39375 68.5321 8.39375ZM61.9867 23.0192C63.1142 23.0192 64.1163 22.7269 64.9932 22.1423C65.891 21.5368 66.5904 20.7226 67.0915 19.6995C67.5926 18.6556 67.8432 17.4864 67.8432 16.1919C67.8432 14.9392 67.5926 13.8117 67.0915 12.8096C66.5904 11.7865 65.891 10.9827 64.9932 10.3981C64.1163 9.79262 63.1142 9.48988 61.9867 9.48988C60.8801 9.48988 59.878 9.78218 58.9802 10.3668C58.1033 10.9305 57.4143 11.7239 56.9132 12.7469C56.4121 13.7491 56.1616 14.8974 56.1616 16.1919C56.1616 17.4864 56.4121 18.6556 56.9132 19.6995C57.4143 20.7226 58.1033 21.5368 58.9802 22.1423C59.8571 22.7269 60.8593 23.0192 61.9867 23.0192Z"/>
<path d="M81.1075 8.42507C82.2767 8.42507 83.3415 8.74869 84.3019 9.39592C85.2593 10.007 85.9186 10.966 86.2798 12.2727C86.2961 12.3316 86.2728 12.3943 86.2226 12.429C86.1116 12.5059 85.9649 12.4031 85.9993 12.2725L86.0557 12.0579C86.3271 11.3689 86.7969 10.753 87.465 10.2102C88.154 9.66734 88.9161 9.23933 89.7512 8.92615C90.6073 8.5921 91.432 8.42507 92.2253 8.42507C93.4781 8.42507 94.5115 8.69649 95.3258 9.23933C96.1401 9.78218 96.7351 10.5129 97.1109 11.4316C97.5076 12.3294 97.706 13.3524 97.706 14.5007V23.6142C97.706 23.7813 97.6433 23.9274 97.5181 24.0527C97.4137 24.178 97.2675 24.2406 97.0796 24.2406C96.8917 24.2406 96.7351 24.178 96.6098 24.0527C96.5054 23.9274 96.4532 23.7813 96.4532 23.6142V14.626C96.4532 13.7074 96.2967 12.8722 95.9835 12.1206C95.6912 11.3481 95.2214 10.7426 94.5742 10.3041C93.9478 9.84481 93.1231 9.61515 92.1001 9.61515C91.2023 9.61515 90.3254 9.84481 89.4694 10.3041C88.6133 10.7426 87.9035 11.3481 87.3398 12.1206C86.7969 12.8722 86.5255 13.7074 86.5255 14.626V23.6142C86.5255 23.7813 86.4628 23.9274 86.3376 24.0527C86.2332 24.178 86.087 24.2406 85.8991 24.2406C85.7112 24.2406 85.5546 24.178 85.4294 24.0527C85.325 23.9274 85.2728 23.7813 85.2728 23.6142V14.4694C85.2728 13.5716 85.1266 12.7574 84.8343 12.0266C84.5629 11.2959 84.1244 10.7113 83.519 10.2728C82.9135 9.83437 82.1097 9.61515 81.1075 9.61515C80.2306 9.61515 79.3746 9.83437 78.5394 10.2728C77.7252 10.7113 77.0466 11.2959 76.5038 12.0266C75.9609 12.7574 75.6895 13.5716 75.6895 14.4694V23.6142C75.6895 23.7813 75.6269 23.9274 75.5016 24.0527C75.3763 24.178 75.2302 24.2406 75.0631 24.2406C74.8752 24.2406 74.7186 24.178 74.5934 24.0527C74.489 23.9274 74.4368 23.7813 74.4368 23.6142V9.23933C74.4368 9.0723 74.4994 8.92615 74.6247 8.80088C74.75 8.67561 74.8961 8.61298 75.0631 8.61298C75.2511 8.61298 75.3972 8.67561 75.5016 8.80088C75.6269 8.92615 75.6895 9.0723 75.6895 9.23933V12.5251C75.6895 12.6088 75.6671 12.691 75.6246 12.7632C75.382 13.1758 74.9008 13.0118 75.0783 12.5673C75.1381 12.4174 75.2062 12.2685 75.2824 12.1206C75.6373 11.4316 76.1071 10.8157 76.6917 10.2728C77.2971 9.7091 77.9757 9.26021 78.7273 8.92615C79.4998 8.5921 80.2932 8.42507 81.1075 8.42507Z"/>
<path fill-rule="evenodd" clip-rule="evenodd" d="M103.975 24.0527C104.1 23.9274 104.163 23.7813 104.163 23.6142V8.73825C104.163 8.57122 104.1 8.42507 103.975 8.2998C103.871 8.17452 103.725 8.11189 103.537 8.11189C103.37 8.11189 103.224 8.17452 103.098 8.2998C102.973 8.42507 102.91 8.57122 102.91 8.73825V23.6142C102.91 23.7813 102.963 23.9274 103.067 24.0527C103.192 24.178 103.349 24.2406 103.537 24.2406C103.704 24.2406 103.85 24.178 103.975 24.0527Z"/>
</mask>
<path d="M21.3897 24.5538C19.7194 24.5538 18.2579 24.1988 17.0052 23.489C15.7525 22.7791 14.7712 21.8082 14.0613 20.5764C13.3723 19.3237 13.0278 17.8831 13.0278 16.2545C13.0278 14.4381 13.3828 12.8931 14.0926 11.6195C14.8234 10.325 15.7629 9.34373 16.9112 8.67561C18.0804 7.98662 19.3123 7.64212 20.6068 7.64212C21.5672 7.64212 22.4963 7.81959 23.394 8.17453C24.2918 8.52946 25.0852 9.05143 25.7742 9.74042C26.4632 10.4085 27.0165 11.2228 27.4341 12.1832C27.8516 13.1227 28.0708 14.1771 28.0917 15.3463C28.0917 15.6804 27.9665 15.9622 27.7159 16.1919C27.4654 16.4216 27.1731 16.5364 26.839 16.5364H15.3032C14.8115 16.5364 14.3819 16.2044 14.2577 15.7287C14.0792 15.0441 14.5957 14.3755 15.3032 14.3755H25.5979C25.7242 14.3755 25.7831 14.5321 25.688 14.6153C25.5995 14.6927 25.461 14.6299 25.461 14.5123V14.1249C25.3775 13.2689 25.0852 12.5381 24.5841 11.9327C24.1039 11.3063 23.5089 10.8261 22.799 10.492C22.11 10.158 21.3793 9.99096 20.6068 9.99096C19.9804 9.99096 19.354 10.1058 18.7277 10.3355C18.1222 10.5442 17.5689 10.8992 17.0678 11.4003C16.5876 11.8805 16.1909 12.5068 15.8778 13.2793C15.5855 14.0518 15.4393 14.9809 15.4393 16.0666C15.4393 17.2776 15.6794 18.3424 16.1596 19.2611C16.6607 20.1797 17.3497 20.9105 18.2266 21.4533C19.1035 21.9753 20.1265 22.2362 21.2957 22.2362C22.0265 22.2362 22.6633 22.1423 23.2061 21.9544C23.749 21.7665 24.2188 21.5368 24.6154 21.2654C24.9601 21.0114 25.2575 20.7575 25.5076 20.5035C25.5818 20.4281 25.6604 20.3562 25.7518 20.3028C25.9753 20.172 26.1916 20.1066 26.4006 20.1066C26.7137 20.1066 26.9643 20.211 27.1522 20.4198C27.361 20.6286 27.4654 20.8791 27.4654 21.1714C27.4654 21.4947 27.3268 21.7833 27.0497 22.0373C26.9944 22.0881 26.9393 22.1392 26.8879 22.1939C26.3112 22.8073 25.5433 23.3539 24.5841 23.8335C23.582 24.3137 22.5171 24.5538 21.3897 24.5538Z" fill="#F0F0F0"/>
<path d="M39.0606 7.86135C40.0627 7.86135 40.9814 7.97618 41.8165 8.20584C42.6726 8.41463 43.3511 8.70693 43.8522 9.08274C44.3533 9.45856 44.6038 9.86569 44.6038 10.3041C44.6038 10.5129 44.5308 10.7217 44.3846 10.9305C44.2385 11.1393 44.0297 11.2437 43.7582 11.2437C43.5077 11.2437 43.2989 11.181 43.1319 11.0558C42.9857 10.9305 42.8291 10.7843 42.6621 10.6173C42.516 10.4503 42.2967 10.2937 42.0044 10.1476C41.7539 10.0223 41.3676 9.91789 40.8457 9.83437C40.3446 9.72998 39.7913 9.67778 39.1858 9.67778C38.0166 9.67778 36.9623 9.97008 36.0227 10.5547C35.0832 11.1184 34.342 11.8909 33.7992 12.8722C33.2772 13.8535 33.0162 14.9601 33.0162 16.1919C33.0162 17.4446 33.2668 18.5616 33.7678 19.5429C34.2898 20.5242 35.0101 21.3072 35.9288 21.8918C36.8474 22.4555 37.9122 22.7373 39.1232 22.7373C39.9375 22.7373 40.5743 22.6643 41.0336 22.5181C41.4929 22.372 41.8896 22.2049 42.2237 22.017C42.6204 21.7874 42.9127 21.5681 43.1006 21.3594C43.2885 21.1506 43.5286 21.0462 43.8209 21.0462C44.0923 21.0462 44.3011 21.1297 44.4472 21.2967C44.5934 21.4637 44.6665 21.6725 44.6665 21.9231C44.6665 22.2571 44.4159 22.6329 43.9148 23.0505C43.4137 23.4472 42.7352 23.8021 41.8792 24.1153C41.0231 24.4076 40.0314 24.5538 38.904 24.5538C37.359 24.5538 35.9914 24.1884 34.8013 23.4576C33.6321 22.7269 32.7135 21.7352 32.0454 20.4825C31.3981 19.2089 31.0745 17.7787 31.0745 16.1919C31.0745 14.6678 31.4086 13.2793 32.0767 12.0266C32.7448 10.753 33.6739 9.74042 34.864 8.98879C36.0541 8.23716 37.4529 7.86135 39.0606 7.86135Z" fill="#F0F0F0"/>
<path d="M50.2905 23.3011C50.2905 23.5516 50.1965 23.7708 50.0086 23.9587C49.8207 24.1466 49.6015 24.2406 49.3509 24.2406C49.0795 24.2406 48.8498 24.1466 48.6619 23.9587C48.4949 23.7708 48.4114 23.5516 48.4114 23.3011V2.0049C48.4114 1.75436 48.5053 1.53514 48.6933 1.34723C48.8812 1.15932 49.1004 1.06537 49.3509 1.06537C49.6224 1.06537 49.8416 1.15932 50.0086 1.34723C50.1965 1.53514 50.2905 1.75436 50.2905 2.0049V23.3011Z" fill="#F0F0F0"/>
<path d="M68.5321 8.39375C68.7827 8.39375 68.981 8.47726 69.1272 8.64429C69.2733 8.79044 69.3464 8.97835 69.3464 9.20802V23.4263C69.3464 23.6351 69.2629 23.823 69.0959 23.9901C68.9497 24.1571 68.7618 24.2406 68.5321 24.2406C68.2816 24.2406 68.0833 24.1571 67.9371 23.9901C67.791 23.823 67.7179 23.6351 67.7179 23.4263V19.5699C67.7179 19.4756 67.7678 19.3883 67.8491 19.3404C68.0266 19.2361 68.2462 19.3644 68.2182 19.5684C68.155 20.0285 67.9987 20.5002 67.7492 20.9835C67.4151 21.6308 66.9663 22.2258 66.4025 22.7687C65.8388 23.2906 65.1603 23.7186 64.3669 24.0527C63.5944 24.3867 62.7592 24.5538 61.8614 24.5538C60.4626 24.5538 59.2099 24.1884 58.1033 23.4576C56.9967 22.7269 56.1198 21.7352 55.4726 20.4825C54.8462 19.2089 54.5331 17.7787 54.5331 16.1919C54.5331 14.5842 54.8567 13.1645 55.5039 11.9327C56.1511 10.7008 57.028 9.72998 58.1346 9.02011C59.2412 8.31024 60.4835 7.9553 61.8614 7.9553C62.7592 7.9553 63.5944 8.12233 64.3669 8.45639C65.1603 8.76956 65.8493 9.20802 66.4338 9.77174C67.0185 10.3146 67.4778 10.9514 67.8118 11.6821C68.0464 12.1952 68.1986 12.7289 68.2685 13.2832C68.3016 13.5462 67.9924 13.6792 67.805 13.4918C67.7492 13.436 67.7179 13.3603 67.7179 13.2814V9.20802C67.7179 8.97835 67.791 8.79044 67.9371 8.64429C68.0833 8.47726 68.2816 8.39375 68.5321 8.39375ZM61.9867 23.0192C63.1142 23.0192 64.1163 22.7269 64.9932 22.1423C65.891 21.5368 66.5904 20.7226 67.0915 19.6995C67.5926 18.6556 67.8432 17.4864 67.8432 16.1919C67.8432 14.9392 67.5926 13.8117 67.0915 12.8096C66.5904 11.7865 65.891 10.9827 64.9932 10.3981C64.1163 9.79262 63.1142 9.48988 61.9867 9.48988C60.8801 9.48988 59.878 9.78218 58.9802 10.3668C58.1033 10.9305 57.4143 11.7239 56.9132 12.7469C56.4121 13.7491 56.1616 14.8974 56.1616 16.1919C56.1616 17.4864 56.4121 18.6556 56.9132 19.6995C57.4143 20.7226 58.1033 21.5368 58.9802 22.1423C59.8571 22.7269 60.8593 23.0192 61.9867 23.0192Z" fill="#F0F0F0"/>
<path d="M81.1075 8.42507C82.2767 8.42507 83.3415 8.74869 84.3019 9.39592C85.2593 10.007 85.9186 10.966 86.2798 12.2727C86.2961 12.3316 86.2728 12.3943 86.2226 12.429C86.1116 12.5059 85.9649 12.4031 85.9993 12.2725L86.0557 12.0579C86.3271 11.3689 86.7969 10.753 87.465 10.2102C88.154 9.66734 88.9161 9.23933 89.7512 8.92615C90.6073 8.5921 91.432 8.42507 92.2253 8.42507C93.4781 8.42507 94.5115 8.69649 95.3258 9.23933C96.1401 9.78218 96.7351 10.5129 97.1109 11.4316C97.5076 12.3294 97.706 13.3524 97.706 14.5007V23.6142C97.706 23.7813 97.6433 23.9274 97.5181 24.0527C97.4137 24.178 97.2675 24.2406 97.0796 24.2406C96.8917 24.2406 96.7351 24.178 96.6098 24.0527C96.5054 23.9274 96.4532 23.7813 96.4532 23.6142V14.626C96.4532 13.7074 96.2967 12.8722 95.9835 12.1206C95.6912 11.3481 95.2214 10.7426 94.5742 10.3041C93.9478 9.84481 93.1231 9.61515 92.1001 9.61515C91.2023 9.61515 90.3254 9.84481 89.4694 10.3041C88.6133 10.7426 87.9035 11.3481 87.3398 12.1206C86.7969 12.8722 86.5255 13.7074 86.5255 14.626V23.6142C86.5255 23.7813 86.4628 23.9274 86.3376 24.0527C86.2332 24.178 86.087 24.2406 85.8991 24.2406C85.7112 24.2406 85.5546 24.178 85.4294 24.0527C85.325 23.9274 85.2728 23.7813 85.2728 23.6142V14.4694C85.2728 13.5716 85.1266 12.7574 84.8343 12.0266C84.5629 11.2959 84.1244 10.7113 83.519 10.2728C82.9135 9.83437 82.1097 9.61515 81.1075 9.61515C80.2306 9.61515 79.3746 9.83437 78.5394 10.2728C77.7252 10.7113 77.0466 11.2959 76.5038 12.0266C75.9609 12.7574 75.6895 13.5716 75.6895 14.4694V23.6142C75.6895 23.7813 75.6269 23.9274 75.5016 24.0527C75.3763 24.178 75.2302 24.2406 75.0631 24.2406C74.8752 24.2406 74.7186 24.178 74.5934 24.0527C74.489 23.9274 74.4368 23.7813 74.4368 23.6142V9.23933C74.4368 9.0723 74.4994 8.92615 74.6247 8.80088C74.75 8.67561 74.8961 8.61298 75.0631 8.61298C75.2511 8.61298 75.3972 8.67561 75.5016 8.80088C75.6269 8.92615 75.6895 9.0723 75.6895 9.23933V12.5251C75.6895 12.6088 75.6671 12.691 75.6246 12.7632C75.382 13.1758 74.9008 13.0118 75.0783 12.5673C75.1381 12.4174 75.2062 12.2685 75.2824 12.1206C75.6373 11.4316 76.1071 10.8157 76.6917 10.2728C77.2971 9.7091 77.9757 9.26021 78.7273 8.92615C79.4998 8.5921 80.2932 8.42507 81.1075 8.42507Z" fill="#F0F0F0"/>
<path fill-rule="evenodd" clip-rule="evenodd" d="M103.975 24.0527C104.1 23.9274 104.163 23.7813 104.163 23.6142V8.73825C104.163 8.57122 104.1 8.42507 103.975 8.2998C103.871 8.17452 103.725 8.11189 103.537 8.11189C103.37 8.11189 103.224 8.17452 103.098 8.2998C102.973 8.42507 102.91 8.57122 102.91 8.73825V23.6142C102.91 23.7813 102.963 23.9274 103.067 24.0527C103.192 24.178 103.349 24.2406 103.537 24.2406C103.704 24.2406 103.85 24.178 103.975 24.0527Z" fill="#F0F0F0"/>
<path d="M21.3897 24.5538C19.7194 24.5538 18.2579 24.1988 17.0052 23.489C15.7525 22.7791 14.7712 21.8082 14.0613 20.5764C13.3723 19.3237 13.0278 17.8831 13.0278 16.2545C13.0278 14.4381 13.3828 12.8931 14.0926 11.6195C14.8234 10.325 15.7629 9.34373 16.9112 8.67561C18.0804 7.98662 19.3123 7.64212 20.6068 7.64212C21.5672 7.64212 22.4963 7.81959 23.394 8.17453C24.2918 8.52946 25.0852 9.05143 25.7742 9.74042C26.4632 10.4085 27.0165 11.2228 27.4341 12.1832C27.8516 13.1227 28.0708 14.1771 28.0917 15.3463C28.0917 15.6804 27.9665 15.9622 27.7159 16.1919C27.4654 16.4216 27.1731 16.5364 26.839 16.5364H15.3032C14.8115 16.5364 14.3819 16.2044 14.2577 15.7287C14.0792 15.0441 14.5957 14.3755 15.3032 14.3755H25.5979C25.7242 14.3755 25.7831 14.5321 25.688 14.6153C25.5995 14.6927 25.461 14.6299 25.461 14.5123V14.1249C25.3775 13.2689 25.0852 12.5381 24.5841 11.9327C24.1039 11.3063 23.5089 10.8261 22.799 10.492C22.11 10.158 21.3793 9.99096 20.6068 9.99096C19.9804 9.99096 19.354 10.1058 18.7277 10.3355C18.1222 10.5442 17.5689 10.8992 17.0678 11.4003C16.5876 11.8805 16.1909 12.5068 15.8778 13.2793C15.5855 14.0518 15.4393 14.9809 15.4393 16.0666C15.4393 17.2776 15.6794 18.3424 16.1596 19.2611C16.6607 20.1797 17.3497 20.9105 18.2266 21.4533C19.1035 21.9753 20.1265 22.2362 21.2957 22.2362C22.0265 22.2362 22.6633 22.1423 23.2061 21.9544C23.749 21.7665 24.2188 21.5368 24.6154 21.2654C24.9601 21.0114 25.2575 20.7575 25.5076 20.5035C25.5818 20.4281 25.6604 20.3562 25.7518 20.3028C25.9753 20.172 26.1916 20.1066 26.4006 20.1066C26.7137 20.1066 26.9643 20.211 27.1522 20.4198C27.361 20.6286 27.4654 20.8791 27.4654 21.1714C27.4654 21.4947 27.3268 21.7833 27.0497 22.0373C26.9944 22.0881 26.9393 22.1392 26.8879 22.1939C26.3112 22.8073 25.5433 23.3539 24.5841 23.8335C23.582 24.3137 22.5171 24.5538 21.3897 24.5538Z" stroke="#F0F0F0" stroke-width="0.4" mask="url(#path-2-outside-1_1423_20616)"/>
<path d="M39.0606 7.86135C40.0627 7.86135 40.9814 7.97618 41.8165 8.20584C42.6726 8.41463 43.3511 8.70693 43.8522 9.08274C44.3533 9.45856 44.6038 9.86569 44.6038 10.3041C44.6038 10.5129 44.5308 10.7217 44.3846 10.9305C44.2385 11.1393 44.0297 11.2437 43.7582 11.2437C43.5077 11.2437 43.2989 11.181 43.1319 11.0558C42.9857 10.9305 42.8291 10.7843 42.6621 10.6173C42.516 10.4503 42.2967 10.2937 42.0044 10.1476C41.7539 10.0223 41.3676 9.91789 40.8457 9.83437C40.3446 9.72998 39.7913 9.67778 39.1858 9.67778C38.0166 9.67778 36.9623 9.97008 36.0227 10.5547C35.0832 11.1184 34.342 11.8909 33.7992 12.8722C33.2772 13.8535 33.0162 14.9601 33.0162 16.1919C33.0162 17.4446 33.2668 18.5616 33.7678 19.5429C34.2898 20.5242 35.0101 21.3072 35.9288 21.8918C36.8474 22.4555 37.9122 22.7373 39.1232 22.7373C39.9375 22.7373 40.5743 22.6643 41.0336 22.5181C41.4929 22.372 41.8896 22.2049 42.2237 22.017C42.6204 21.7874 42.9127 21.5681 43.1006 21.3594C43.2885 21.1506 43.5286 21.0462 43.8209 21.0462C44.0923 21.0462 44.3011 21.1297 44.4472 21.2967C44.5934 21.4637 44.6665 21.6725 44.6665 21.9231C44.6665 22.2571 44.4159 22.6329 43.9148 23.0505C43.4137 23.4472 42.7352 23.8021 41.8792 24.1153C41.0231 24.4076 40.0314 24.5538 38.904 24.5538C37.359 24.5538 35.9914 24.1884 34.8013 23.4576C33.6321 22.7269 32.7135 21.7352 32.0454 20.4825C31.3981 19.2089 31.0745 17.7787 31.0745 16.1919C31.0745 14.6678 31.4086 13.2793 32.0767 12.0266C32.7448 10.753 33.6739 9.74042 34.864 8.98879C36.0541 8.23716 37.4529 7.86135 39.0606 7.86135Z" stroke="#F0F0F0" stroke-width="0.4" mask="url(#path-2-outside-1_1423_20616)"/>
<path d="M50.2905 23.3011C50.2905 23.5516 50.1965 23.7708 50.0086 23.9587C49.8207 24.1466 49.6015 24.2406 49.3509 24.2406C49.0795 24.2406 48.8498 24.1466 48.6619 23.9587C48.4949 23.7708 48.4114 23.5516 48.4114 23.3011V2.0049C48.4114 1.75436 48.5053 1.53514 48.6933 1.34723C48.8812 1.15932 49.1004 1.06537 49.3509 1.06537C49.6224 1.06537 49.8416 1.15932 50.0086 1.34723C50.1965 1.53514 50.2905 1.75436 50.2905 2.0049V23.3011Z" stroke="#F0F0F0" stroke-width="0.4" mask="url(#path-2-outside-1_1423_20616)"/>
<path d="M68.5321 8.39375C68.7827 8.39375 68.981 8.47726 69.1272 8.64429C69.2733 8.79044 69.3464 8.97835 69.3464 9.20802V23.4263C69.3464 23.6351 69.2629 23.823 69.0959 23.9901C68.9497 24.1571 68.7618 24.2406 68.5321 24.2406C68.2816 24.2406 68.0833 24.1571 67.9371 23.9901C67.791 23.823 67.7179 23.6351 67.7179 23.4263V19.5699C67.7179 19.4756 67.7678 19.3883 67.8491 19.3404C68.0266 19.2361 68.2462 19.3644 68.2182 19.5684C68.155 20.0285 67.9987 20.5002 67.7492 20.9835C67.4151 21.6308 66.9663 22.2258 66.4025 22.7687C65.8388 23.2906 65.1603 23.7186 64.3669 24.0527C63.5944 24.3867 62.7592 24.5538 61.8614 24.5538C60.4626 24.5538 59.2099 24.1884 58.1033 23.4576C56.9967 22.7269 56.1198 21.7352 55.4726 20.4825C54.8462 19.2089 54.5331 17.7787 54.5331 16.1919C54.5331 14.5842 54.8567 13.1645 55.5039 11.9327C56.1511 10.7008 57.028 9.72998 58.1346 9.02011C59.2412 8.31024 60.4835 7.9553 61.8614 7.9553C62.7592 7.9553 63.5944 8.12233 64.3669 8.45639C65.1603 8.76956 65.8493 9.20802 66.4338 9.77174C67.0185 10.3146 67.4778 10.9514 67.8118 11.6821C68.0464 12.1952 68.1986 12.7289 68.2685 13.2832C68.3016 13.5462 67.9924 13.6792 67.805 13.4918C67.7492 13.436 67.7179 13.3603 67.7179 13.2814V9.20802C67.7179 8.97835 67.791 8.79044 67.9371 8.64429C68.0833 8.47726 68.2816 8.39375 68.5321 8.39375ZM61.9867 23.0192C63.1142 23.0192 64.1163 22.7269 64.9932 22.1423C65.891 21.5368 66.5904 20.7226 67.0915 19.6995C67.5926 18.6556 67.8432 17.4864 67.8432 16.1919C67.8432 14.9392 67.5926 13.8117 67.0915 12.8096C66.5904 11.7865 65.891 10.9827 64.9932 10.3981C64.1163 9.79262 63.1142 9.48988 61.9867 9.48988C60.8801 9.48988 59.878 9.78218 58.9802 10.3668C58.1033 10.9305 57.4143 11.7239 56.9132 12.7469C56.4121 13.7491 56.1616 14.8974 56.1616 16.1919C56.1616 17.4864 56.4121 18.6556 56.9132 19.6995C57.4143 20.7226 58.1033 21.5368 58.9802 22.1423C59.8571 22.7269 60.8593 23.0192 61.9867 23.0192Z" stroke="#F0F0F0" stroke-width="0.4" mask="url(#path-2-outside-1_1423_20616)"/>
<path d="M81.1075 8.42507C82.2767 8.42507 83.3415 8.74869 84.3019 9.39592C85.2593 10.007 85.9186 10.966 86.2798 12.2727C86.2961 12.3316 86.2728 12.3943 86.2226 12.429C86.1116 12.5059 85.9649 12.4031 85.9993 12.2725L86.0557 12.0579C86.3271 11.3689 86.7969 10.753 87.465 10.2102C88.154 9.66734 88.9161 9.23933 89.7512 8.92615C90.6073 8.5921 91.432 8.42507 92.2253 8.42507C93.4781 8.42507 94.5115 8.69649 95.3258 9.23933C96.1401 9.78218 96.7351 10.5129 97.1109 11.4316C97.5076 12.3294 97.706 13.3524 97.706 14.5007V23.6142C97.706 23.7813 97.6433 23.9274 97.5181 24.0527C97.4137 24.178 97.2675 24.2406 97.0796 24.2406C96.8917 24.2406 96.7351 24.178 96.6098 24.0527C96.5054 23.9274 96.4532 23.7813 96.4532 23.6142V14.626C96.4532 13.7074 96.2967 12.8722 95.9835 12.1206C95.6912 11.3481 95.2214 10.7426 94.5742 10.3041C93.9478 9.84481 93.1231 9.61515 92.1001 9.61515C91.2023 9.61515 90.3254 9.84481 89.4694 10.3041C88.6133 10.7426 87.9035 11.3481 87.3398 12.1206C86.7969 12.8722 86.5255 13.7074 86.5255 14.626V23.6142C86.5255 23.7813 86.4628 23.9274 86.3376 24.0527C86.2332 24.178 86.087 24.2406 85.8991 24.2406C85.7112 24.2406 85.5546 24.178 85.4294 24.0527C85.325 23.9274 85.2728 23.7813 85.2728 23.6142V14.4694C85.2728 13.5716 85.1266 12.7574 84.8343 12.0266C84.5629 11.2959 84.1244 10.7113 83.519 10.2728C82.9135 9.83437 82.1097 9.61515 81.1075 9.61515C80.2306 9.61515 79.3746 9.83437 78.5394 10.2728C77.7252 10.7113 77.0466 11.2959 76.5038 12.0266C75.9609 12.7574 75.6895 13.5716 75.6895 14.4694V23.6142C75.6895 23.7813 75.6269 23.9274 75.5016 24.0527C75.3763 24.178 75.2302 24.2406 75.0631 24.2406C74.8752 24.2406 74.7186 24.178 74.5934 24.0527C74.489 23.9274 74.4368 23.7813 74.4368 23.6142V9.23933C74.4368 9.0723 74.4994 8.92615 74.6247 8.80088C74.75 8.67561 74.8961 8.61298 75.0631 8.61298C75.2511 8.61298 75.3972 8.67561 75.5016 8.80088C75.6269 8.92615 75.6895 9.0723 75.6895 9.23933V12.5251C75.6895 12.6088 75.6671 12.691 75.6246 12.7632C75.382 13.1758 74.9008 13.0118 75.0783 12.5673C75.1381 12.4174 75.2062 12.2685 75.2824 12.1206C75.6373 11.4316 76.1071 10.8157 76.6917 10.2728C77.2971 9.7091 77.9757 9.26021 78.7273 8.92615C79.4998 8.5921 80.2932 8.42507 81.1075 8.42507Z" stroke="#F0F0F0" stroke-width="0.4" mask="url(#path-2-outside-1_1423_20616)"/>
<path fill-rule="evenodd" clip-rule="evenodd" d="M103.975 24.0527C104.1 23.9274 104.163 23.7813 104.163 23.6142V8.73825C104.163 8.57122 104.1 8.42507 103.975 8.2998C103.871 8.17452 103.725 8.11189 103.537 8.11189C103.37 8.11189 103.224 8.17452 103.098 8.2998C102.973 8.42507 102.91 8.57122 102.91 8.73825V23.6142C102.91 23.7813 102.963 23.9274 103.067 24.0527C103.192 24.178 103.349 24.2406 103.537 24.2406C103.704 24.2406 103.85 24.178 103.975 24.0527Z" stroke="#F0F0F0" stroke-width="0.4" mask="url(#path-2-outside-1_1423_20616)"/>
<path d="M1.39459 24.2056C1.75926 24.5703 2.22047 24.5642 2.40135 24.5642C2.58222 24.5642 3.04343 24.5703 3.40811 24.2056C3.77279 23.8195 3.95513 23.3476 3.95513 22.7898L4.14356 15.1638L4.33405 10.6797L4.332 9.93118V9.50054C4.332 8.9428 4.14966 8.48159 3.78498 8.11691C3.4203 7.73078 2.95909 7.53772 2.40135 7.53772C1.84361 7.53772 1.3824 7.73078 1.01772 8.11691C0.653042 8.48159 0.470703 8.9428 0.470703 9.50054V9.93118L0.470703 10.6797L0.659137 15.1638L0.847571 22.7898C0.847571 23.3476 1.02991 23.8195 1.39459 24.2056Z" fill="#F0F0F0"/>
<path d="M6.29482 8.02038C5.82288 8.2778 5.39385 8.6103 5.00772 9.01788C4.75045 9.29028 4.52521 9.59472 4.332 9.93118L4.14356 15.1638C4.14356 14.3915 4.32942 13.7813 4.52248 13.2236C4.737 12.6444 5.10425 12.1069 5.42603 11.7208C5.76925 11.3347 6.13393 11.0558 6.52006 10.8842C6.92764 10.6911 7.3245 10.5946 7.71063 10.5946C8.13966 10.5946 8.51506 10.6697 8.83683 10.8198C9.18006 10.97 9.55546 11.0451 9.96305 11.0451C10.3921 11.0451 10.7889 10.8949 11.1536 10.5946C11.5183 10.2728 11.7006 9.75796 11.7006 9.05005C11.7006 8.55667 11.4754 8.12764 11.0249 7.76296C10.5959 7.39828 10.0596 7.21594 9.41603 7.21594C8.87974 7.21594 8.34345 7.2803 7.80716 7.40901C7.27087 7.53772 6.76675 7.74151 6.29482 8.02038Z" fill="url(#paint0_linear_1423_20616)"/>
<path d="M4.33405 10.6797L4.14356 15.1638L4.332 9.93118L4.33405 10.6797Z" fill="#F0F0F0"/>
<path d="M4.89928 29.3346C4.89928 30.6875 3.80254 31.7842 2.44964 31.7842C1.09674 31.7842 0 30.6875 0 29.3346C0 27.9817 1.09674 26.8849 2.44964 26.8849C3.80254 26.8849 4.89928 27.9817 4.89928 29.3346Z" fill="#F0F0F0"/>
<defs>
<linearGradient id="paint0_linear_1423_20616" x1="7.96581" y1="10.9736" x2="4.33036" y2="10.9736" gradientUnits="userSpaceOnUse">
<stop stop-color="#F0F0F0"/>
<stop offset="1" stop-color="#F0F0F0" stop-opacity="0.6"/>
</linearGradient>
</defs>
</svg>
