<svg width="24" height="24" viewBox="0 0 24 24" fill="none" xmlns="http://www.w3.org/2000/svg">
<path fill-rule="evenodd" clip-rule="evenodd" d="M4.21939 9.22544C5.36985 9.22544 6.30351 10.1733 6.30351 11.3458C6.30351 12.5163 5.37181 13.4662 4.21939 13.4662C3.06893 13.4662 2.13527 12.5183 2.13527 11.3458C2.13332 10.1733 3.06697 9.22544 4.21939 9.22544ZM7.06528 8.88761C6.88362 8.93331 6.69806 8.81805 6.65509 8.63324C6.61017 8.44843 6.72346 8.25965 6.90511 8.21593L11.7707 7.0077C11.9523 6.96199 12.1379 7.07725 12.1808 7.26206C12.2258 7.44687 12.1125 7.63566 11.9308 7.67938L7.06528 8.88761ZM16.8804 9.448C17.062 9.49371 17.1753 9.68051 17.1304 9.86532C17.0854 10.0501 16.9018 10.1654 16.7202 10.1197L14.8314 9.6507C14.6497 9.60499 14.5365 9.4182 14.5814 9.23338C14.6263 9.04857 14.8099 8.93331 14.9916 8.97902L16.8804 9.448ZM17.0776 7.72707C17.2612 7.77079 17.3745 7.95759 17.3316 8.1424C17.2886 8.3292 17.105 8.44446 16.9233 8.40074L15.7416 8.11855C15.558 8.07483 15.4447 7.88804 15.4877 7.70322C15.5307 7.51643 15.7143 7.40117 15.8959 7.44489L17.0776 7.72707ZM6.86214 7.17065C6.67853 7.21437 6.49493 7.09712 6.45391 6.91231C6.41094 6.72551 6.52618 6.53871 6.70783 6.49698L10.1338 5.68023C10.3174 5.63651 10.501 5.75376 10.5421 5.93857C10.585 6.12537 10.4698 6.31217 10.2881 6.3539L6.86214 7.17065ZM18.3726 7.14283L14.1907 6.1055L14.6087 7.81848C14.679 8.10663 14.6263 8.39478 14.4857 8.63126C14.347 8.86376 14.1185 9.04261 13.8391 9.11415L13.802 9.12409C13.802 9.12607 13.7903 9.12806 13.7864 9.12806C12.7277 9.30095 11.8332 9.47384 11.0694 9.63083L11.0655 9.61692L9.52637 9.99846L9.95804 11.777L8.1591 13.8735L6.26249 13.953C5.95974 13.8596 5.62573 13.8139 5.25461 13.8139C4.31119 13.8139 3.27597 13.6589 2.39701 14.0127V13.9888C2.19192 14.0802 1.99269 14.2074 1.79931 14.3604L1.79345 14.3664C1.61571 14.5095 1.44382 14.6804 1.28561 14.8711V14.8731C1.26803 14.895 1.25045 14.9168 1.23287 14.9387C1.22506 14.9486 1.21724 14.9586 1.20748 14.9705L1.20553 14.9745C1.18599 14.9963 1.16841 15.0182 1.15279 15.04L1.15083 15.042C1.14302 15.052 1.13716 15.0619 1.12935 15.0718L1.12544 15.0758V15.0778C1.11763 15.0877 1.11177 15.0977 1.10396 15.1076L1.0981 15.1175L1.07856 15.1454L1.07466 15.1493C1.06684 15.1593 1.05903 15.1712 1.05122 15.1811L1.04536 15.1891L1.02778 15.2129L1.02192 15.2209C1.01411 15.2308 1.00825 15.2408 1.00239 15.2507L1.00043 15.2527L0.996528 15.2586C0.990668 15.2666 0.984808 15.2765 0.978948 15.2845L0.971135 15.2964C0.963322 15.3063 0.957463 15.3183 0.94965 15.3282V15.3302C0.941837 15.3401 0.935977 15.352 0.928164 15.364L0.924257 15.3719L0.906678 15.3997L0.900818 15.4077C0.894959 15.4196 0.887146 15.4295 0.881286 15.4415L0.875426 15.4514L0.861753 15.4752L0.85394 15.4892C0.848081 15.4991 0.842221 15.511 0.834408 15.521L0.830501 15.5269L0.814875 15.5547L0.809016 15.5667C0.803156 15.5786 0.797296 15.5885 0.791436 15.6004V15.6024C0.785577 15.6144 0.777764 15.6263 0.771904 15.6382L0.767997 15.6461L0.752371 15.676L0.748465 15.6859L0.726979 15.7197L0.721119 15.7336L0.707447 15.7614L0.70354 15.7694C0.69768 15.7813 0.691821 15.7932 0.685961 15.8051L0.680101 15.8151L0.666428 15.8429L0.662522 15.8528C0.656662 15.8647 0.650802 15.8787 0.644943 15.8906C0.293358 16.6457 0.0999859 17.8778 0.0159961 18.7303C0.00427664 18.8336 -0.00158311 18.9728 0.000370142 19.2053C0.00232339 19.2231 0.00622989 19.241 0.0101364 19.2589V19.2609C0.0140429 19.2768 0.0179494 19.2947 0.0218559 19.3106V19.3126C0.0257624 19.3285 0.0296689 19.3444 0.0335754 19.3583L0.0355286 19.3622C0.0394351 19.3762 0.0433416 19.3921 0.0492014 19.406L0.0511546 19.4099C0.0550611 19.4239 0.0609209 19.4358 0.0648274 19.4497L0.0667806 19.4556C0.0706871 19.4676 0.0765469 19.4795 0.0824066 19.4914L0.0863131 19.5014C0.0921729 19.5133 0.0960794 19.5232 0.101939 19.5351C0.433992 20.1989 1.35983 20.018 1.67431 19.4795L1.67626 19.4755L1.67821 19.4715C1.68212 19.4656 1.68603 19.4596 1.68798 19.4517C1.69188 19.4457 1.69384 19.4398 1.69579 19.4338C1.69774 19.4298 1.6997 19.4239 1.70165 19.4199C1.70556 19.4119 1.70946 19.404 1.71142 19.398L1.71532 19.3881C1.71923 19.3781 1.72314 19.3702 1.72704 19.3603L1.729 19.3543C1.7329 19.3444 1.73681 19.3344 1.73876 19.3225V19.3205C1.74267 19.3086 1.74658 19.2967 1.74853 19.2847V19.2828C1.75244 19.2708 1.75439 19.2589 1.75634 19.247C1.7583 19.2351 1.76025 19.2212 1.7622 19.2092L1.93995 17.842C1.96729 17.4843 1.99073 17.2439 2.13332 16.9041C2.19973 16.7451 2.27981 16.606 2.37552 16.4947L2.38919 17.1286L2.45756 20.2962H6.39531L6.40508 19.6703V15.986L8.65131 15.8945C8.94235 15.8866 9.20018 15.7535 9.37792 15.5468L11.5695 12.9932C11.9093 12.5977 11.8957 12.0075 11.5519 11.63L11.0909 9.73416C11.1144 9.75602 11.1437 9.77391 11.1769 9.78186L17.355 11.314C17.4546 11.3398 17.5581 11.2762 17.5816 11.1729L18.5074 7.37136C18.5348 7.272 18.4723 7.16667 18.3726 7.14283ZM5.38743 5.81934L12.5949 4.00501C12.6965 3.98116 12.7981 4.04475 12.8235 4.14809L13.7708 8.02913C13.7962 8.13048 13.7337 8.2358 13.6321 8.25965L6.42461 10.074C6.32499 10.0998 6.22147 10.0362 6.19803 9.93289L5.25071 6.05184C5.22531 5.94851 5.28782 5.84517 5.38743 5.81934ZM15.0619 11.2166L13.5227 10.8351L13.0774 13.0469C12.757 13.4185 12.7414 13.9828 13.0637 14.3743L15.1342 16.8862C15.3646 17.1743 15.7416 17.3253 16.1244 17.2439L17.6753 16.8027L17.6812 20.3241H21.6189L21.6873 17.85L21.701 17.2161C21.7947 17.3273 21.8748 17.4664 21.9432 17.6254C22.0838 17.9652 22.1073 18.2057 22.1366 18.5634L22.2381 19.3106C22.2401 19.3225 22.242 19.3364 22.244 19.3483C22.2459 19.3603 22.2479 19.3722 22.2518 19.3841V19.3861C22.2537 19.398 22.2577 19.4099 22.2616 19.4219V19.4239C22.2635 19.4358 22.2674 19.4457 22.2713 19.4556L22.2733 19.4616C22.2772 19.4715 22.2811 19.4795 22.285 19.4894L22.2889 19.4994C22.2909 19.5053 22.2948 19.5133 22.2987 19.5212C22.3006 19.5252 22.3026 19.5312 22.3045 19.5351C22.3065 19.5411 22.3084 19.5471 22.3123 19.553C22.3143 19.561 22.3182 19.5669 22.3221 19.5729L22.3241 19.5769L22.326 19.5808C22.6405 20.1194 23.5663 20.3002 23.8984 19.6365C23.9042 19.6246 23.9081 19.6146 23.914 19.6027L23.9179 19.5948C23.9238 19.5828 23.9296 19.5709 23.9335 19.559L23.9355 19.553C23.9394 19.5391 23.9453 19.5272 23.9492 19.5133L23.9511 19.5093C23.957 19.4954 23.9609 19.4795 23.9648 19.4656L23.9667 19.4616C23.9707 19.4477 23.9746 19.4318 23.9785 19.4159V19.4139C23.9824 19.398 23.9863 19.3801 23.9902 19.3642V19.3622C23.9941 19.3444 23.998 19.3265 24 19.3086C24.0039 18.5097 23.7538 17.3055 23.4335 16.6159C23.4277 16.604 23.4218 16.5901 23.4159 16.5782L23.412 16.5682L23.3984 16.5404L23.3925 16.5305C23.3866 16.5185 23.3808 16.5066 23.3749 16.4947L23.371 16.4867L23.3573 16.4589L23.3515 16.445L23.33 16.4112L23.3261 16.4033L23.3105 16.3735L23.3065 16.3655C23.3007 16.3536 23.2929 16.3417 23.287 16.3298V16.3278C23.2812 16.3158 23.2753 16.3059 23.2694 16.294L23.2636 16.2821L23.248 16.2542L23.244 16.2443C23.2362 16.2344 23.2304 16.2224 23.2245 16.2125L23.2167 16.1986L23.203 16.1747L23.1972 16.1648C23.1913 16.1529 23.1835 16.143 23.1776 16.131L23.1737 16.1231L23.1561 16.0953L23.1522 16.0873C23.1444 16.0754 23.1386 16.0635 23.1308 16.0535V16.0515C23.1229 16.0416 23.1171 16.0297 23.1093 16.0197L23.1015 16.0078C23.0956 15.9999 23.0897 15.9899 23.0839 15.982L23.08 15.976L23.078 15.974C23.0722 15.9641 23.0663 15.9542 23.0585 15.9442L23.0526 15.9363L23.035 15.9124L23.0292 15.9045C23.0214 15.8945 23.0136 15.8826 23.0057 15.8727L23.0038 15.8687L22.9843 15.8409L22.9784 15.831C22.9706 15.821 22.9647 15.8111 22.9569 15.8012V15.7992L22.953 15.7952C22.9452 15.7853 22.9393 15.7753 22.9315 15.7654L22.9296 15.7634C22.9139 15.7415 22.8964 15.7197 22.8768 15.6978L22.8749 15.6938C22.8651 15.6819 22.8573 15.672 22.8495 15.662C22.8319 15.6402 22.8143 15.6183 22.7968 15.5965V15.5945C22.6385 15.4037 22.4667 15.2328 22.2889 15.0897L22.283 15.0838C22.0897 14.9307 21.8904 14.8036 21.6854 14.7122V14.736C20.8064 14.3803 19.7712 14.5353 18.8277 14.5353C18.4273 14.5353 18.0718 14.5889 17.7515 14.6982L17.7398 14.7002L16.3002 15.1175L14.6771 13.1482L15.0619 11.2166ZM19.8591 9.9468C18.7106 9.9468 17.7749 10.8967 17.7749 12.0691C17.7749 13.2396 18.7066 14.1895 19.8591 14.1895C21.0095 14.1895 21.9432 13.2416 21.9432 12.0691C21.9432 10.8967 21.0115 9.9468 19.8591 9.9468Z" fill="#FFE9AC"/>
</svg>
