<svg width="391" height="136" viewBox="0 0 391 136" fill="none" xmlns="http://www.w3.org/2000/svg">
<path d="M374.035 24.2747C374.035 28.8447 370.331 32.5494 365.761 32.5494C361.191 32.5494 357.486 28.8447 357.486 24.2747C357.486 19.7047 361.191 16 365.761 16C370.331 16 374.035 19.7047 374.035 24.2747Z" fill="#F0F0F0"/>
<path d="M88.2477 95.5575C82.606 95.5575 77.6695 94.3586 73.4382 91.9609C69.2069 89.5632 65.8924 86.2839 63.4947 82.1232C61.1675 77.8919 60.0039 73.0259 60.0039 67.5252C60.0039 61.3899 61.2028 56.1713 63.6005 51.8695C66.0687 47.4972 69.2422 44.1827 73.1209 41.926C77.0701 39.5988 81.2308 38.4352 85.6032 38.4352C88.8472 38.4352 91.9854 39.0346 95.0178 40.2335C98.0502 41.4323 100.73 43.1954 103.057 45.5226C105.384 47.7793 107.253 50.5296 108.664 53.7736C110.074 56.947 110.815 60.5084 110.885 64.4576C110.885 65.5859 110.462 66.538 109.616 67.3137C108.769 68.0894 107.782 68.4773 106.654 68.4773H67.6895C66.0287 68.4773 64.5774 67.356 64.1582 65.749V65.749C63.555 63.4368 65.2998 61.1783 67.6895 61.1783H102.462C102.888 61.1783 103.087 61.7074 102.766 61.9885V61.9885C102.467 62.25 101.999 62.0377 101.999 61.6406V60.3321C101.717 57.4407 100.73 54.9724 99.0375 52.9273C97.4155 50.8117 95.4056 49.1897 93.0079 48.0613C90.6807 46.933 88.2125 46.3688 85.6032 46.3688C83.4875 46.3688 81.3719 46.7567 79.2562 47.5324C77.2111 48.2377 75.3423 49.4365 73.6498 51.129C72.0278 52.751 70.6879 54.8667 69.6301 57.476C68.6428 60.0852 68.1491 63.2234 68.1491 66.8906C68.1491 70.9808 68.9601 74.5774 70.5821 77.6803C72.2746 80.7833 74.6018 83.2515 77.5637 85.0851C80.5256 86.8481 83.9812 87.7296 87.9304 87.7296C90.3986 87.7296 92.5495 87.4123 94.3831 86.7776C96.2166 86.1429 97.8034 85.3672 99.1433 84.4504C100.307 83.5926 101.312 82.7348 102.157 81.877C102.407 81.6223 102.673 81.3794 102.981 81.1989C103.736 80.7573 104.467 80.5364 105.173 80.5364C106.231 80.5364 107.077 80.8891 107.712 81.5943C108.417 82.2995 108.769 83.1457 108.769 84.133C108.769 85.2249 108.301 86.1999 107.365 87.0578C107.179 87.2291 106.993 87.4017 106.819 87.5864C104.871 89.6586 102.277 91.5046 99.0375 93.1245C95.6525 94.7465 92.0559 95.5575 88.2477 95.5575Z" fill="#F0F0F0"/>
<path d="M147.934 39.1757C151.319 39.1757 154.422 39.5635 157.243 40.3393C160.135 41.0445 162.427 42.0318 164.119 43.3012C165.812 44.5705 166.658 45.9457 166.658 47.4267C166.658 48.1319 166.411 48.8371 165.917 49.5423C165.424 50.2475 164.719 50.6001 163.802 50.6001C162.955 50.6001 162.25 50.3886 161.686 49.9654C161.192 49.5423 160.664 49.0486 160.099 48.4845C159.606 47.9203 158.865 47.3914 157.878 46.8977C157.032 46.4746 155.727 46.122 153.964 45.8399C152.271 45.4873 150.403 45.311 148.358 45.311C144.408 45.311 140.847 46.2983 137.674 48.2729C134.5 50.177 131.997 52.7863 130.163 56.1008C128.4 59.4153 127.518 63.1529 127.518 67.3137C127.518 71.545 128.365 75.3179 130.057 78.6324C131.82 81.9469 134.253 84.5914 137.356 86.566C140.459 88.4701 144.056 89.4221 148.146 89.4221C150.896 89.4221 153.047 89.1753 154.599 88.6817C156.15 88.188 157.49 87.6238 158.618 86.9892C159.958 86.2134 160.946 85.4729 161.58 84.7677C162.215 84.0625 163.026 83.7099 164.013 83.7099C164.93 83.7099 165.635 83.992 166.129 84.5562C166.623 85.1203 166.869 85.8255 166.869 86.6718C166.869 87.8001 166.023 89.0695 164.331 90.48C162.638 91.8199 160.346 93.0187 157.455 94.0765C154.563 95.0638 151.214 95.5575 147.406 95.5575C142.187 95.5575 137.568 94.3234 133.548 91.8551C129.599 89.3869 126.496 86.0371 124.239 81.8058C122.053 77.504 120.96 72.6733 120.96 67.3137C120.96 62.1656 122.088 57.476 124.345 53.2447C126.602 48.9429 129.74 45.5226 133.76 42.9838C137.779 40.445 142.504 39.1757 147.934 39.1757Z" fill="#F0F0F0"/>
<path d="M185.866 91.3262C185.866 92.1725 185.548 92.9129 184.914 93.5476C184.279 94.1823 183.538 94.4997 182.692 94.4997C181.775 94.4997 181 94.1823 180.365 93.5476C179.801 92.9129 179.519 92.1725 179.519 91.3262V19.3944C179.519 18.5481 179.836 17.8077 180.471 17.173C181.105 16.5383 181.846 16.2209 182.692 16.2209C183.609 16.2209 184.349 16.5383 184.914 17.173C185.548 17.8077 185.866 18.5481 185.866 19.3944V91.3262Z" fill="#F0F0F0"/>
<path d="M247.48 40.9739C248.327 40.9739 248.996 41.256 249.49 41.8202C249.984 42.3139 250.231 42.9485 250.231 43.7243V91.7494C250.231 92.4546 249.949 93.0892 249.384 93.6534C248.891 94.2176 248.256 94.4997 247.48 94.4997C246.634 94.4997 245.964 94.2176 245.47 93.6534C244.977 93.0892 244.73 92.4546 244.73 91.7494V78.7235C244.73 78.4049 244.899 78.11 245.173 77.9485V77.9485C245.773 77.5959 246.514 78.0296 246.42 78.7185C246.206 80.2725 245.678 81.8657 244.836 83.4983C243.707 85.6845 242.191 87.6944 240.287 89.5279C238.383 91.291 236.091 92.7366 233.411 93.865C230.802 94.9933 227.981 95.5575 224.949 95.5575C220.224 95.5575 215.992 94.3234 212.255 91.8551C208.517 89.3869 205.555 86.0371 203.369 81.8058C201.254 77.504 200.196 72.6733 200.196 67.3137C200.196 61.8835 201.289 57.0881 203.475 52.9273C205.661 48.7666 208.623 45.4873 212.361 43.0896C216.098 40.6919 220.294 39.493 224.949 39.493C227.981 39.493 230.802 40.0572 233.411 41.1855C236.091 42.2433 238.418 43.7243 240.393 45.6284C242.368 47.4619 243.919 49.6128 245.047 52.0811C245.84 53.8142 246.354 55.6168 246.59 57.489C246.702 58.3773 245.657 58.8265 245.024 58.1934V58.1934C244.836 58.005 244.73 57.7494 244.73 57.4828V43.7243C244.73 42.9485 244.977 42.3139 245.47 41.8202C245.964 41.256 246.634 40.9739 247.48 40.9739ZM225.372 90.3742C229.18 90.3742 232.565 89.3869 235.527 87.4123C238.559 85.3672 240.922 82.6168 242.614 79.1613C244.307 75.6352 245.153 71.686 245.153 67.3137C245.153 63.0824 244.307 59.2742 242.614 55.8892C240.922 52.4337 238.559 49.7186 235.527 47.744C232.565 45.6989 229.18 44.6763 225.372 44.6763C221.634 44.6763 218.249 45.6636 215.217 47.6382C212.255 49.5423 209.928 52.2221 208.235 55.6777C206.543 59.0627 205.696 62.9414 205.696 67.3137C205.696 71.686 206.543 75.6352 208.235 79.1613C209.928 82.6168 212.255 85.3672 215.217 87.4123C218.179 89.3869 221.564 90.3742 225.372 90.3742Z" fill="#F0F0F0"/>
<path d="M289.956 41.0797C293.905 41.0797 297.502 42.1728 300.746 44.359C303.98 46.4232 306.206 49.6622 307.426 54.076C307.481 54.2749 307.403 54.4864 307.233 54.6039V54.6039C306.858 54.8635 306.363 54.5162 306.479 54.0751L306.669 53.3505C307.586 51.0232 309.173 48.9429 311.43 47.1093C313.757 45.2758 316.331 43.8301 319.152 42.7722C322.043 41.6439 324.829 41.0797 327.509 41.0797C331.74 41.0797 335.231 41.9965 337.981 43.8301C340.731 45.6636 342.741 48.1319 344.011 51.2348C345.35 54.2672 346.02 57.7228 346.02 61.6015V92.384C346.02 92.9482 345.809 93.4419 345.386 93.865C345.033 94.2881 344.539 94.4997 343.905 94.4997C343.27 94.4997 342.741 94.2881 342.318 93.865C341.965 93.4419 341.789 92.9482 341.789 92.384V62.0246C341.789 58.9216 341.26 56.1008 340.202 53.562C339.215 50.9527 337.628 48.9076 335.442 47.4267C333.327 45.8752 330.541 45.0995 327.085 45.0995C324.053 45.0995 321.091 45.8752 318.2 47.4267C315.308 48.9076 312.911 50.9527 311.007 53.562C309.173 56.1008 308.256 58.9216 308.256 62.0246V92.384C308.256 92.9482 308.045 93.4419 307.622 93.865C307.269 94.2881 306.775 94.4997 306.141 94.4997C305.506 94.4997 304.977 94.2881 304.554 93.865C304.201 93.4419 304.025 92.9482 304.025 92.384V61.4957C304.025 58.4633 303.531 55.7129 302.544 53.2447C301.627 50.7764 300.146 48.8018 298.101 47.3209C296.056 45.8399 293.341 45.0995 289.956 45.0995C286.994 45.0995 284.103 45.8399 281.282 47.3209C278.531 48.8018 276.24 50.7764 274.406 53.2447C272.572 55.7129 271.656 58.4633 271.656 61.4957V92.384C271.656 92.9482 271.444 93.4419 271.021 93.865C270.598 94.2881 270.104 94.4997 269.54 94.4997C268.905 94.4997 268.376 94.2881 267.953 93.865C267.601 93.4419 267.424 92.9482 267.424 92.384V43.8301C267.424 43.2659 267.636 42.7722 268.059 42.3491C268.482 41.926 268.976 41.7144 269.54 41.7144C270.175 41.7144 270.668 41.926 271.021 42.3491C271.444 42.7722 271.656 43.2659 271.656 43.8301V54.9282C271.656 55.2111 271.58 55.4889 271.437 55.7327V55.7327C270.617 57.1261 268.992 56.5722 269.591 55.0709C269.793 54.5647 270.023 54.0617 270.28 53.562C271.479 51.2348 273.066 49.1544 275.041 47.3209C277.086 45.4168 279.378 43.9006 281.916 42.7722C284.526 41.6439 287.206 41.0797 289.956 41.0797Z" fill="#F0F0F0"/>
<path fill-rule="evenodd" clip-rule="evenodd" d="M367.196 93.865C367.619 93.4419 367.831 92.9482 367.831 92.384V42.1375C367.831 41.5734 367.619 41.0797 367.196 40.6566C366.843 40.2335 366.35 40.0219 365.715 40.0219C365.151 40.0219 364.657 40.2335 364.234 40.6566C363.811 41.0797 363.599 41.5734 363.599 42.1375V92.384C363.599 92.9482 363.776 93.4419 364.128 93.865C364.551 94.2881 365.08 94.4997 365.715 94.4997C366.279 94.4997 366.773 94.2881 367.196 93.865Z" fill="#F0F0F0"/>
<path d="M20.7102 94.3812C21.942 95.613 23.4998 95.5924 24.1107 95.5924C24.7217 95.5924 26.2795 95.613 27.5113 94.3812C28.743 93.077 29.3589 91.483 29.3589 89.5991L29.9954 63.8406L30.6388 48.6949L30.6318 46.1666V44.712C30.6318 42.8281 30.016 41.2703 28.7842 40.0386C27.5524 38.7343 25.9946 38.0822 24.1107 38.0822C22.2268 38.0822 20.669 38.7343 19.4373 40.0386C18.2055 41.2703 17.5896 42.8281 17.5896 44.712V46.1666V48.6949L18.2261 63.8406L18.8625 89.5991C18.8625 91.483 19.4784 93.077 20.7102 94.3812Z" fill="#F0F0F0"/>
<path d="M37.2617 39.7125C35.6676 40.582 34.2185 41.7051 32.9142 43.0817C32.0453 44.0018 31.2845 45.0301 30.6318 46.1666L29.9954 63.8406C29.9954 61.2322 30.6231 59.1711 31.2753 57.2872C31.9998 55.3309 33.2403 53.5155 34.3271 52.2113C35.4865 50.9071 36.7182 49.9651 38.0225 49.3855C39.3991 48.7334 40.7396 48.4073 42.0438 48.4073C43.493 48.4073 44.7609 48.6609 45.8478 49.1681C47.0071 49.6753 48.2751 49.9289 49.6518 49.9289C51.1009 49.9289 52.4414 49.4217 53.6732 48.4073C54.9049 47.3205 55.5208 45.5815 55.5208 43.1904C55.5208 41.5239 54.76 40.0748 53.2384 38.843C51.7893 37.6112 49.9778 36.9954 47.8041 36.9954C45.9927 36.9954 44.1813 37.2127 42.3699 37.6475C40.5584 38.0822 38.8557 38.7706 37.2617 39.7125Z" fill="url(#paint0_linear_1205_21315)"/>
<path d="M30.6388 48.6949L29.9954 63.8406L30.6318 46.1666L30.6388 48.6949Z" fill="#F0F0F0"/>
<path d="M32.5483 111.705C32.5483 116.275 28.8438 119.979 24.2741 119.979C19.7045 119.979 16 116.275 16 111.705C16 107.136 19.7045 103.431 24.2741 103.431C28.8438 103.431 32.5483 107.136 32.5483 111.705Z" fill="#F0F0F0"/>
<defs>
<linearGradient id="paint0_linear_1205_21315" x1="42.9057" y1="49.6877" x2="30.6263" y2="49.6877" gradientUnits="userSpaceOnUse">
<stop stop-color="#F0F0F0"/>
<stop offset="1" stop-color="#F0F0F0" stop-opacity="0.6"/>
</linearGradient>
</defs>
</svg>
